<svg width="21" height="22" viewBox="0 0 21 22" fill="none" xmlns="http://www.w3.org/2000/svg">
<path d="M15.25 21.5C15.7141 21.5 16.1592 21.3156 16.4874 20.9874C16.8156 20.6592 17 20.2141 17 19.75C17 19.2859 16.8156 18.8408 16.4874 18.5126C16.1592 18.1844 15.7141 18 15.25 18C14.7859 18 14.3408 18.1844 14.0126 18.5126C13.6844 18.8408 13.5 19.2859 13.5 19.75C13.5 20.2141 13.6844 20.6592 14.0126 20.9874C14.3408 21.3156 14.7859 21.5 15.25 21.5ZM7.25 21.5C7.71413 21.5 8.15925 21.3156 8.48744 20.9874C8.81563 20.6592 9 20.2141 9 19.75C9 19.2859 8.81563 18.8408 8.48744 18.5126C8.15925 18.1844 7.71413 18 7.25 18C6.78587 18 6.34075 18.1844 6.01256 18.5126C5.68437 18.8408 5.5 19.2859 5.5 19.75C5.5 20.2141 5.68437 20.6592 6.01256 20.9874C6.34075 21.3156 6.78587 21.5 7.25 21.5ZM3.84 2.94L3.64 5.39C3.6 5.86 3.97 6.25 4.44 6.25H19.75C20.17 6.25 20.52 5.93 20.55 5.51C20.68 3.74 19.33 2.3 17.56 2.3H5.27C5.17 1.86 4.97 1.44 4.66 1.09C4.16 0.56 3.46 0.25 2.74 0.25H1C0.59 0.25 0.25 0.59 0.25 1C0.25 1.41 0.59 1.75 1 1.75H2.74C3.05 1.75 3.34 1.88 3.55 2.1C3.76 2.33 3.86 2.63 3.84 2.94ZM19.51 7.75H4.17C3.75 7.75 3.41 8.07 3.37 8.48L3.01 12.83C2.97567 13.233 3.02539 13.6388 3.15603 14.0217C3.28666 14.4045 3.49536 14.756 3.7689 15.054C4.04245 15.352 4.37488 15.5899 4.74516 15.7528C5.11544 15.9156 5.5155 15.9998 5.92 16H17.04C18.54 16 19.86 14.77 19.97 13.27L20.3 8.6C20.3095 8.49106 20.2961 8.38133 20.2606 8.27791C20.225 8.17448 20.1682 8.07965 20.0938 7.99955C20.0193 7.91945 19.9289 7.85585 19.8284 7.81287C19.7278 7.76988 19.6193 7.74847 19.51 7.75Z" fill="#F65314"/>
</svg>
