<svg width="45" height="45" viewBox="0 0 45 45" fill="none" xmlns="http://www.w3.org/2000/svg">
<g clip-path="url(#clip0_138_20050)">
<path d="M34.6461 34.0306C34.0474 35.9938 32.7963 37.6938 31.0997 38.8489C29.4032 40.0041 27.3631 40.5453 25.317 40.3829L25.238 37.356C26.1189 37.4733 27.0148 37.3938 27.8612 37.1231C28.7077 36.8524 29.4835 36.3973 30.1328 35.7906L26.5938 34.7127C25.8323 34.4807 25.1941 33.9557 24.8196 33.2532C24.4451 32.5507 24.365 31.7282 24.597 30.9667L26.3462 25.2238C26.5781 24.4623 27.1031 23.824 27.8056 23.4496C28.5081 23.0751 29.3306 22.995 30.0922 23.227L34.3103 24.5118C34.8053 21.6297 34.2316 18.666 32.6968 16.1768C31.162 13.6877 28.7717 11.8441 25.9742 10.992C23.1768 10.14 20.1646 10.338 17.5029 11.549C14.8411 12.7599 12.7126 14.9005 11.5169 17.5692L15.7351 18.854C16.4966 19.086 17.1348 19.6109 17.5093 20.3135C17.8838 21.016 17.9639 21.8385 17.7319 22.6L15.9827 28.3429C15.7507 29.1044 15.2258 29.7426 14.5233 30.1171C13.8207 30.4916 12.9982 30.5717 12.2367 30.3397L7.92955 29.0278C7.168 28.7959 6.52978 28.2709 6.15531 27.5684C5.78083 26.8658 5.70076 26.0433 5.93272 25.2818L8.11921 18.1032C10.5344 10.1738 18.9199 5.70388 26.8493 8.11907C34.7788 10.5343 39.2487 18.9197 36.8335 26.8492L34.6461 34.0306Z" fill="white"/>
</g>
<defs>
<clipPath id="clip0_138_20050">
<rect width="36.02" height="36.02" fill="white" transform="translate(10.4951) rotate(16.94)"/>
</clipPath>
</defs>
</svg>
