<svg width="78" height="78" viewBox="0 0 78 78" fill="none" xmlns="http://www.w3.org/2000/svg">
<g clip-path="url(#clip0_138_19266)">
<path d="M62.8997 24.8748H55.7578V27.8485H62.8997V24.8748Z" fill="#F65314"/>
<path d="M52.1747 24.8748H41.4619V27.8485H52.1747V24.8748Z" fill="#F65314"/>
<path d="M27.0927 24.8748H15.1855V27.8485H27.0927V24.8748Z" fill="#F65314"/>
<path d="M62.8999 47.2144H52.1871C51.6874 47.2144 51.2974 47.6165 51.2974 48.104C51.2974 48.6037 51.6996 48.9937 52.1871 48.9937H62.8999C63.3874 48.9937 63.7896 48.5915 63.7896 48.104C63.7896 47.6165 63.3874 47.2144 62.8999 47.2144Z" fill="#FFBB00"/>
<path d="M41.462 49.0059H47.4216C47.9213 49.0059 48.3113 48.6037 48.3113 48.1162C48.3113 47.6287 47.9091 47.2266 47.4216 47.2266H41.462C40.9745 47.2266 40.5723 47.6287 40.5723 48.1162C40.5723 48.6037 40.9745 49.0059 41.462 49.0059Z" fill="#FFBB00"/>
<path d="M56.94 44.2406H62.8997C63.3872 44.2406 63.7894 43.8384 63.7894 43.3509C63.7894 42.8634 63.3872 42.4612 62.8997 42.4612H56.94C56.4525 42.4612 56.0503 42.8634 56.0503 43.3509C56.0503 43.8384 56.4525 44.2406 56.94 44.2406Z" fill="#FFBB00"/>
<path d="M41.462 44.2406H52.1748C52.6623 44.2406 53.0645 43.8384 53.0645 43.3509C53.0645 42.8634 52.6623 42.4612 52.1748 42.4612H41.462C40.9745 42.4612 40.5723 42.8634 40.5723 43.3509C40.5723 43.8384 40.9745 44.2406 41.462 44.2406Z" fill="#FFBB00"/>
<path d="M56.9401 51.9797H41.462C40.9745 51.9797 40.5723 52.3819 40.5723 52.8694C40.5723 53.3569 40.9745 53.7591 41.462 53.7591H56.9401C57.4276 53.7591 57.8298 53.3569 57.8298 52.8694C57.842 52.3819 57.4398 51.9797 56.9401 51.9797Z" fill="#FFBB00"/>
<path d="M28.2874 47.2144H22.3399C21.8524 47.2144 21.4502 47.6165 21.4502 48.104C21.4502 48.6037 21.8524 48.9937 22.3399 48.9937H28.2874C28.7749 48.9937 29.1771 48.5915 29.1771 48.104C29.1771 47.6165 28.7749 47.2144 28.2874 47.2144Z" fill="#FFBB00"/>
<path d="M13.9912 49.0059H17.5622C18.0497 49.0059 18.4519 48.6037 18.4519 48.1162C18.4519 47.6287 18.0497 47.2266 17.5622 47.2266H13.9912C13.5037 47.2266 13.1016 47.6287 13.1016 48.1162C13.1016 48.6037 13.5037 49.0059 13.9912 49.0059Z" fill="#FFBB00"/>
<path d="M24.7161 44.2406H28.2871C28.7746 44.2406 29.1768 43.8384 29.1768 43.3509C29.1768 42.8634 28.7746 42.4612 28.2871 42.4612H24.7161C24.2164 42.4612 23.8264 42.8634 23.8264 43.3509C23.8143 43.8384 24.2164 44.2406 24.7161 44.2406Z" fill="#FFBB00"/>
<path d="M13.9912 44.2406H19.9388C20.4384 44.2406 20.8284 43.8384 20.8284 43.3509C20.8284 42.8634 20.4263 42.4612 19.9388 42.4612H13.9912C13.5037 42.4612 13.1016 42.8634 13.1016 43.3509C13.1016 43.8384 13.5037 44.2406 13.9912 44.2406Z" fill="#FFBB00"/>
<path d="M23.5219 51.9797H13.9912C13.5037 51.9797 13.1016 52.3819 13.1016 52.8694C13.1016 53.3569 13.5037 53.7591 13.9912 53.7591H23.5219C24.0094 53.7591 24.4116 53.3569 24.4116 52.8694C24.4116 52.3819 24.0094 51.9797 23.5219 51.9797Z" fill="#FFBB00"/>
<path d="M41.4619 12.7969V21.1331H67.665V31.5778H41.4619V39.3534H67.665V56.8669H41.4619V71.1506H77.1104V12.7969H41.4619Z" fill="#00A1F1"/>
<path d="M5.05762 65.8004H37.2082V12.2119H5.05762V65.8004ZM10.4201 21.1332H31.8579V31.5779H10.4201V21.1332ZM10.4201 39.3535H31.8579V56.8547H10.4201V39.3535Z" fill="#00A1F1"/>
<path d="M72.1986 5.78901C71.6501 5.24058 70.6508 5.24058 70.0901 5.78901C69.822 6.06933 69.6636 6.45933 69.6636 6.84933C69.6636 7.22714 69.822 7.61714 70.0901 7.89745C70.3583 8.17776 70.7605 8.3362 71.1505 8.3362C71.5405 8.3362 71.9305 8.16558 72.1986 7.89745C72.4667 7.61714 72.6373 7.22714 72.6373 6.84933C72.6495 6.45933 72.4789 6.08151 72.1986 5.78901Z" fill="#7CBB00"/>
<path d="M62.8145 5.36255C61.998 5.36255 61.3276 6.03286 61.3276 6.84942C61.3276 7.66599 61.998 8.3363 62.8145 8.3363C63.6311 8.3363 64.3014 7.66599 64.3014 6.84942C64.3136 6.03286 63.6433 5.36255 62.8145 5.36255Z" fill="#7CBB00"/>
<path d="M53.4178 5.78901C53.1497 6.06933 52.9912 6.45933 52.9912 6.84933C52.9912 7.22714 53.1497 7.61714 53.4178 7.89745C53.6981 8.17776 54.0881 8.3362 54.4781 8.3362C54.8681 8.3362 55.2459 8.16558 55.5262 7.89745C55.7943 7.61714 55.965 7.22714 55.965 6.84933C55.965 6.45933 55.7943 6.06933 55.5262 5.78901C54.9778 5.24058 53.9784 5.24058 53.4178 5.78901Z" fill="#7CBB00"/>
<path d="M11.7488 70.1025C11.4807 70.3706 11.3223 70.7728 11.3223 71.1628C11.3223 71.5528 11.4807 71.9306 11.7488 72.2109C12.0413 72.4912 12.4191 72.6497 12.8091 72.6497C13.1991 72.6497 13.577 72.4791 13.8573 72.2109C14.1254 71.9306 14.296 71.5528 14.296 71.1628C14.296 70.7728 14.1254 70.3828 13.8573 70.1025C13.3088 69.5541 12.3095 69.5541 11.7488 70.1025Z" fill="#7CBB00"/>
<path d="M21.1456 69.6638C20.329 69.6638 19.6587 70.3341 19.6587 71.1507C19.6587 71.9673 20.329 72.6376 21.1456 72.6376C21.9621 72.6376 22.6324 71.9673 22.6324 71.1507C22.6324 70.3341 21.9621 69.6638 21.1456 69.6638Z" fill="#7CBB00"/>
<path d="M30.5174 70.1025C29.969 69.5541 28.9696 69.5541 28.409 70.1025C28.1409 70.3706 27.9824 70.7728 27.9824 71.1628C27.9824 71.5528 28.1409 71.9306 28.409 72.2109C28.6893 72.4912 29.0793 72.6497 29.4693 72.6497C29.8593 72.6497 30.2371 72.4791 30.5174 72.2109C30.7855 71.9306 30.9562 71.5528 30.9562 71.1628C30.9684 70.7606 30.7977 70.3706 30.5174 70.1025Z" fill="#7CBB00"/>
<path d="M31.4679 6.84942C31.4679 7.66599 30.7976 8.3363 29.981 8.3363C29.1645 8.3363 28.4941 7.66599 28.4941 6.84942C28.4941 6.03286 29.1645 5.36255 29.981 5.36255C30.7976 5.36255 31.4679 6.02067 31.4679 6.84942Z" fill="#F65314"/>
<path d="M77.1103 0H45.0328C44.5453 0 44.1431 0.402188 44.1431 0.889688C44.1431 1.37719 44.5453 1.77938 45.0328 1.77938H76.2084V11.895H42.2784V5.655C42.2784 2.535 39.7313 0 36.6113 0H5.655C2.535 0 0 2.535 0 5.655V16.3678C0 16.8553 0.402188 17.2575 0.889688 17.2575C1.37719 17.2575 1.77938 16.8553 1.77938 16.3678V5.655C1.77938 3.52219 3.51 1.79156 5.655 1.79156H36.6113C38.7441 1.79156 40.4869 3.52219 40.4869 5.655V72.345C40.4869 74.4778 38.7563 76.2206 36.6113 76.2206H5.655C3.52219 76.2206 1.77938 74.49 1.77938 72.345V36.3431C1.77938 35.8556 1.37719 35.4534 0.889688 35.4534C0.402188 35.4534 0 35.8556 0 36.3431V72.345C0 75.465 2.535 78 5.655 78H36.6113C39.7313 78 42.2663 75.465 42.2663 72.345V13.6987H76.2084V76.2206H44.9597C44.4722 76.2206 44.07 76.6228 44.07 77.1103C44.07 77.5978 44.46 78 44.9597 78H77.1103C77.61 78 78 77.5978 78 77.1103V0.889688C78 0.402188 77.5978 0 77.1103 0Z" fill="#1A171B"/>
<path d="M0.889688 32.4675C1.37719 32.4675 1.77938 32.0653 1.77938 31.5778V21.1331C1.77938 20.6334 1.37719 20.2434 0.889688 20.2434C0.402188 20.2434 0 20.6456 0 21.1331V31.5778C0 32.0775 0.402188 32.4675 0.889688 32.4675Z" fill="#1A171B"/>
<path d="M25.3011 7.73909C25.8008 7.73909 26.1908 7.3369 26.1908 6.8494C26.1908 6.3619 25.7886 5.95972 25.3011 5.95972H16.9649C16.4774 5.95972 16.0752 6.3619 16.0752 6.8494C16.0752 7.3369 16.4774 7.73909 16.9649 7.73909H25.3011Z" fill="#1A171B"/>
</g>
<defs>
<clipPath id="clip0_138_19266">
<rect width="78" height="78" fill="white"/>
</clipPath>
</defs>
</svg>
