<svg width="199" height="199" viewBox="0 0 199 199" fill="none" xmlns="http://www.w3.org/2000/svg">
<g clip-path="url(#clip0_138_18805)">
<path d="M194.89 172.383C195.75 172.383 196.447 171.685 196.447 170.824C196.447 169.962 195.75 169.264 194.89 169.264C194.03 169.264 193.333 169.962 193.333 170.824C193.333 171.685 194.03 172.383 194.89 172.383Z" fill="#4E69FF"/>
<path opacity="0.47" d="M186.773 191.682C187.633 191.682 188.33 190.983 188.33 190.122C188.33 189.26 187.633 188.562 186.773 188.562C185.913 188.562 185.216 189.26 185.216 190.122C185.216 190.983 185.913 191.682 186.773 191.682Z" fill="#9FBFFF"/>
<path d="M2.20587 29.3799C2.87402 29.3799 3.41565 28.8371 3.41565 28.1676C3.41565 27.4981 2.87402 26.9553 2.20587 26.9553C1.53773 26.9553 0.996094 27.4981 0.996094 28.1676C0.996094 28.8371 1.53773 29.3799 2.20587 29.3799Z" fill="#9FBFFF"/>
<path d="M95.4168 12.6843C95.4168 13.8787 94.4517 14.8459 93.2597 14.8459C92.0677 14.8459 91.1025 13.8787 91.1025 12.6843C91.1025 11.4898 92.0677 10.5227 93.2597 10.5227C94.4517 10.5227 95.4168 11.4898 95.4168 12.6843Z" fill="#4E69FF"/>
<path d="M4.23856 44.6313C4.23856 45.7589 3.32678 46.6681 2.20595 46.6681C1.08068 46.6681 0.17334 45.7544 0.17334 44.6313C0.17334 43.5037 1.08512 42.5945 2.20595 42.5945C3.33122 42.5945 4.23856 43.5081 4.23856 44.6313Z" fill="#4E69FF"/>
<path d="M17.7421 26.309C18.1646 26.309 18.5071 25.9658 18.5071 25.5425C18.5071 25.1191 18.1646 24.7759 17.7421 24.7759C17.3196 24.7759 16.9771 25.1191 16.9771 25.5425C16.9771 25.9658 17.3196 26.309 17.7421 26.309Z" fill="#1B1B25"/>
<path d="M195.553 32.2813C194.997 31.9114 194.846 31.1582 195.215 30.6011C195.584 30.044 196.336 29.8925 196.892 30.2624C197.448 30.6323 197.599 31.3855 197.23 31.9426C196.861 32.4997 196.109 32.6513 195.553 32.2813Z" fill="#9FBFFF"/>
<path d="M33.598 191.134C33.0421 190.764 32.8908 190.011 33.26 189.453C33.6292 188.896 34.3808 188.745 34.9368 189.115C35.4928 189.485 35.644 190.238 35.2748 190.795C34.9057 191.352 34.154 191.504 33.598 191.134Z" fill="#9FBFFF"/>
<path d="M171.426 24.1419C172.526 23.9177 173.236 22.8424 173.013 21.7401C172.789 20.6379 171.716 19.926 170.616 20.1502C169.516 20.3744 168.805 21.4497 169.029 22.552C169.253 23.6543 170.326 24.3661 171.426 24.1419Z" fill="#4E69FF"/>
<path d="M177.869 46.3248C177.518 46.093 177.424 45.6161 177.656 45.264C177.887 44.9119 178.363 44.8184 178.714 45.0501C179.065 45.2863 179.159 45.7588 178.928 46.1108C178.696 46.4629 178.22 46.561 177.869 46.3248Z" fill="#1B1B25"/>
<path opacity="0.41" d="M24.3292 6.0925C25.1653 1.82281 30.0756 -0.8023 35.3017 0.222784C40.5278 1.24787 47.7197 6.24849 46.888 10.5137C46.0563 14.779 37.8235 13.4063 32.8465 14.5695C25.8992 16.1918 23.4974 10.3577 24.3292 6.0925Z" fill="#9FBFFF"/>
<g opacity="0.18">
<path d="M186.008 174.63C194.241 163.902 199.654 149.279 198.938 135.596C198.195 121.401 192.573 108.45 194.428 93.7864C195.491 85.403 198.404 77.2558 198.551 68.8011C199.249 28.8719 134.744 -3.19098 110.584 35.0892C108.929 37.7143 107.582 40.5979 105.345 42.7461C102.56 45.4247 98.4817 46.686 94.67 46.0487C88.5321 45.0192 83.2304 40.4375 77.2438 38.5968C71.822 36.9299 66.1779 36.1054 60.507 36.092C49.2498 36.0697 38.006 39.243 28.2922 44.9033C8.89122 56.2149 -3.16655 77.4608 0.729654 100.124C3.03357 113.535 10.955 125.31 19.8104 135.628C36.7473 155.363 57.7939 171.412 80.8465 183.414C99.4735 193.113 120.147 200.315 141.078 198.795C159.589 197.449 175.587 188.21 186.008 174.63Z" fill="#9FBFFF"/>
</g>
<g opacity="0.47">
<path d="M198.106 134.152C199.89 121.673 197.608 107.322 190.781 96.5452C183.7 85.3628 173.226 77.4296 168.035 64.6784C165.069 57.387 163.716 49.4359 159.98 42.5099C142.318 9.78295 75.3269 13.3262 73.1964 55.4705C73.0497 58.3586 73.272 61.3179 72.4403 64.0901C71.3996 67.5397 68.6686 70.4367 65.2884 71.6624C59.8355 73.6412 53.4441 72.3532 47.7421 73.6011C42.5783 74.7332 37.6236 76.6496 33.0157 79.2391C23.8712 84.3823 16.1944 92.1106 10.8883 101.158C0.298268 119.231 0.213762 142.001 13.7215 158.607C21.7141 168.435 33.5139 174.362 45.4115 178.677C68.1661 186.931 92.5752 190.309 116.762 189.485C136.305 188.816 156.373 185.188 172.67 174.358C187.076 164.785 195.847 149.952 198.106 134.152Z" fill="#9FBFFF"/>
</g>
<g opacity="0.47">
<path d="M187.361 134.955C188.77 125.083 186.965 113.731 181.565 105.205C175.961 96.3625 167.675 90.0827 163.574 79.9968C161.226 74.2296 160.158 67.9409 157.201 62.4634C143.23 36.5733 90.2356 39.3767 88.5499 72.7142C88.4343 75.0006 88.6122 77.3405 87.9539 79.5332C87.1311 82.2653 84.9695 84.5517 82.2964 85.5233C77.9821 87.0877 72.925 86.067 68.4151 87.0565C64.332 87.9523 60.4091 89.4676 56.7665 91.5178C49.5345 95.587 43.4589 101.697 39.2647 108.855C30.8852 123.153 30.8184 141.163 41.5063 154.302C47.831 162.079 57.1623 166.763 66.5737 170.177C84.5736 176.707 103.886 179.381 123.015 178.726C138.476 178.2 154.35 175.33 167.243 166.759C178.639 159.187 185.577 147.452 187.361 134.955Z" fill="#9FBFFF"/>
</g>
<g opacity="0.31">
<path d="M187.187 59.8918C186.84 61.3982 185.337 62.3386 183.829 61.991C182.326 61.6433 181.387 60.1369 181.734 58.626C182.081 57.1196 183.584 56.1792 185.092 56.5268C186.596 56.8745 187.534 58.3809 187.187 59.8918Z" fill="#9FBFFF"/>
</g>
<g opacity="0.31">
<path d="M192.329 18.3371C194.248 16.1273 194.016 12.7773 191.81 10.8546C189.605 8.93193 186.262 9.16463 184.343 11.3744C182.425 13.5841 182.657 16.9341 184.862 18.8568C187.067 20.7795 190.41 20.5468 192.329 18.3371Z" fill="#9FBFFF"/>
</g>
<g opacity="0.31">
<path d="M20.2773 193.06C24.108 190.159 24.866 184.694 21.9702 180.856C19.0745 177.017 13.6215 176.258 9.79073 179.159C5.95995 182.061 5.20198 187.525 8.09775 191.364C10.9935 195.203 16.4465 195.962 20.2773 193.06Z" fill="#9FBFFF"/>
</g>
<g opacity="0.31">
<path d="M15.7676 80.1615C15.6342 81.1643 14.7135 81.8685 13.7128 81.7348C12.712 81.6011 12.0093 80.6785 12.1427 79.6757C12.2762 78.6729 13.1968 77.9688 14.1976 78.1025C15.1983 78.2362 15.901 79.1587 15.7676 80.1615Z" fill="#9FBFFF"/>
</g>
<path d="M173.359 151.147L127.307 178.819C125.172 180.103 122.508 180.107 120.369 178.833L17.3597 117.524C15.6785 116.525 14.6332 114.729 14.5843 112.773L14.3931 104.585L66.7339 77.0508L175.979 137.95V146.52C175.974 148.414 174.983 150.17 173.359 151.147Z" fill="#1B1B25"/>
<path d="M174.008 140.463L128.971 167.588C125.577 169.629 121.343 169.647 117.936 167.624L16.4388 107.425C13.6901 105.793 13.7124 101.8 16.4833 100.2L63.0243 73.3472C65.3193 72.0235 68.1436 72.0279 70.4342 73.3561L173.95 133.453C176.624 135.008 176.655 138.868 174.008 140.463Z" fill="#292930"/>
<path d="M25.2051 107.87L74.0099 79.1812L160.051 129.072L109.779 157.957L25.2051 107.87Z" fill="white"/>
<path d="M144.057 150.999C140.673 150.999 137.919 149.266 137.919 147.135C137.919 145.005 140.673 143.271 144.057 143.271C147.442 143.271 150.195 145.005 150.195 147.135C150.195 149.266 147.442 150.999 144.057 150.999ZM144.057 143.717C140.917 143.717 138.364 145.25 138.364 147.135C138.364 149.021 140.917 150.554 144.057 150.554C147.197 150.554 149.75 149.021 149.75 147.135C149.75 145.25 147.197 143.717 144.057 143.717Z" fill="#CCCCCC"/>
<path d="M149.008 162.16C148.865 162.16 148.719 162.124 148.585 162.053C148.292 161.892 148.114 161.598 148.114 161.264V159.659C148.114 159.294 148.301 158.96 148.607 158.763L157.236 153.335C157.458 153.192 157.734 153.183 157.97 153.304C158.206 153.429 158.352 153.656 158.366 153.923L158.441 155.43C158.459 155.813 158.272 156.183 157.957 156.392L149.506 162.008C149.346 162.106 149.177 162.16 149.008 162.16ZM157.472 153.709L148.843 159.138C148.665 159.249 148.559 159.445 148.559 159.655V161.259C148.559 161.429 148.647 161.576 148.794 161.656C148.941 161.736 149.114 161.727 149.257 161.634L157.707 156.018C157.894 155.893 158.006 155.675 157.997 155.448L157.921 153.941C157.917 153.834 157.859 153.745 157.765 153.696C157.667 153.647 157.561 153.651 157.472 153.709Z" fill="#CCCCCC"/>
<path d="M35.6573 95.7875C35.5773 95.7875 35.5061 95.7474 35.4616 95.6717C35.3994 95.5647 35.4394 95.4265 35.5462 95.3686L51.4379 86.4414C51.5446 86.379 51.6825 86.4192 51.7403 86.5261C51.8026 86.6331 51.7625 86.7713 51.6558 86.8292L35.7641 95.7563C35.733 95.7786 35.6974 95.7875 35.6573 95.7875Z" fill="#CCCCCC"/>
<path d="M41.6129 128.363C41.4128 128.363 41.2126 128.31 41.0347 128.203L27.6248 120.162C27.269 119.948 27.0555 119.556 27.0778 119.137C27.0955 118.736 27.3179 118.384 27.6693 118.197C28.0207 118.005 28.4343 118.014 28.7768 118.215L42.1956 126.086C42.5603 126.3 42.7738 126.692 42.7515 127.115L42.7426 127.285C42.7248 127.686 42.5025 128.038 42.1466 128.229C41.9776 128.319 41.7953 128.363 41.6129 128.363ZM27.5181 119.155C27.5047 119.409 27.6337 119.645 27.8517 119.775L41.2615 127.815C41.4706 127.94 41.7241 127.944 41.9376 127.833C42.1511 127.717 42.289 127.503 42.2979 127.258L42.3068 127.088C42.3201 126.834 42.1911 126.594 41.9687 126.464L28.55 118.598C28.3409 118.478 28.0918 118.469 27.8783 118.589C27.6649 118.701 27.5314 118.914 27.5181 119.155Z" fill="#CCCCCC"/>
<path d="M59.3547 138.217C59.159 138.217 58.9678 138.168 58.7899 138.066L45.251 130.248C44.8907 130.039 44.6728 129.651 44.6861 129.232C44.6995 128.831 44.913 128.475 45.2599 128.278C45.6068 128.082 46.0204 128.082 46.3718 128.278L59.9196 135.926C60.2887 136.131 60.5067 136.524 60.4933 136.947L60.4889 137.116C60.4755 137.518 60.262 137.874 59.9107 138.07C59.7328 138.168 59.546 138.217 59.3547 138.217ZM45.1309 129.246C45.122 129.5 45.2554 129.736 45.4734 129.861L59.0122 137.678C59.2213 137.798 59.4748 137.803 59.6883 137.682C59.9018 137.562 60.0308 137.348 60.0397 137.103L60.0441 136.934C60.053 136.675 59.9196 136.439 59.6972 136.314L46.1494 128.666C45.9404 128.546 45.6869 128.546 45.4778 128.666C45.2688 128.787 45.1398 129.005 45.1309 129.246Z" fill="#CCCCCC"/>
<g opacity="0.28">
<path d="M151.338 131.327L144.884 127.868L133.356 121.303C132.747 120.956 131.999 120.956 131.39 121.308L100.83 138.841C99.7356 139.469 99.7312 141.047 100.821 141.68L109.645 146.832C110.695 147.443 111.994 147.438 113.039 146.819L139.916 130.828L151.338 131.327Z" fill="#9FBFFF"/>
<path d="M152.317 127.382L145.863 123.924L134.334 117.359C133.725 117.011 132.978 117.011 132.369 117.363L101.808 134.897C100.714 135.525 100.71 137.103 101.799 137.736L110.624 142.883C111.673 143.494 112.972 143.49 114.017 142.87L140.895 126.879L152.317 127.382Z" fill="#4E69FF"/>
<path d="M106.754 136.238C106.679 136.238 106.608 136.198 106.563 136.131C106.501 136.024 106.532 135.891 106.639 135.824L122.553 126.219C122.655 126.157 122.793 126.188 122.86 126.295C122.922 126.402 122.891 126.536 122.784 126.602L106.87 136.207C106.83 136.225 106.79 136.238 106.754 136.238Z" fill="white"/>
<path d="M109.565 138.088C109.489 138.088 109.414 138.048 109.374 137.981C109.311 137.874 109.347 137.74 109.449 137.673L128.565 126.25C128.668 126.188 128.806 126.219 128.872 126.326C128.935 126.433 128.899 126.567 128.797 126.634L109.68 138.057C109.645 138.079 109.605 138.088 109.565 138.088Z" fill="white"/>
<path d="M112.594 139.786C112.519 139.786 112.447 139.75 112.403 139.679C112.341 139.572 112.372 139.438 112.479 139.371L130.074 128.568C130.176 128.505 130.314 128.537 130.381 128.644C130.443 128.751 130.412 128.884 130.305 128.951L112.71 139.755C112.674 139.772 112.634 139.786 112.594 139.786Z" fill="white"/>
<path d="M134.722 126.7C134.708 126.7 134.699 126.7 134.686 126.7C133.538 126.692 132.458 126.357 131.648 125.747C130.816 125.123 130.358 124.294 130.363 123.411C130.372 121.62 132.311 120.171 134.69 120.171C134.704 120.171 134.713 120.171 134.726 120.171C135.874 120.18 136.954 120.514 137.764 121.125C138.596 121.749 139.054 122.578 139.049 123.465C139.045 124.352 138.578 125.176 137.737 125.787C136.923 126.38 135.856 126.7 134.722 126.7ZM134.69 120.621C132.556 120.621 130.816 121.869 130.808 123.416C130.803 124.156 131.195 124.86 131.911 125.395C132.649 125.947 133.636 126.25 134.686 126.259C135.731 126.259 136.728 125.97 137.475 125.43C138.2 124.904 138.6 124.205 138.604 123.465C138.609 122.725 138.217 122.021 137.501 121.486C136.763 120.933 135.776 120.63 134.726 120.621C134.713 120.621 134.699 120.621 134.69 120.621Z" fill="white"/>
<path d="M111.878 108.53L105.424 105.071L93.8955 98.5063C93.2862 98.1586 92.5389 98.1586 91.9296 98.5107L61.3693 116.044C60.2751 116.673 60.2707 118.25 61.3604 118.883L70.1847 124.035C71.2343 124.646 72.5331 124.641 73.5783 124.022L100.456 108.031L111.878 108.53Z" fill="#9FBFFF"/>
<path d="M92.9037 94.5709L62.3434 112.104C61.2493 112.733 61.2448 114.31 62.3345 114.943L71.1588 120.091C72.2085 120.702 73.5072 120.697 74.5524 120.078L106.403 101.127L94.8741 94.5619C94.2558 94.2188 93.5131 94.2188 92.9037 94.5709Z" fill="#4E69FF"/>
<path d="M112.852 104.59L106.398 101.127L101.426 104.086L112.852 104.59Z" fill="#4E69FF"/>
<path d="M67.289 113.441C67.2134 113.441 67.1422 113.401 67.0977 113.334C67.0355 113.227 67.0666 113.094 67.1734 113.027L83.0873 103.422C83.1941 103.36 83.3275 103.391 83.3942 103.498C83.4565 103.605 83.4253 103.739 83.3186 103.806L67.4046 113.41C67.3691 113.432 67.329 113.441 67.289 113.441Z" fill="white"/>
<path d="M70.1044 115.291C70.0288 115.291 69.9532 115.251 69.9131 115.184C69.8509 115.077 69.8864 114.943 69.9887 114.876L89.105 103.453C89.2118 103.391 89.3452 103.427 89.4119 103.529C89.4742 103.636 89.4386 103.77 89.3363 103.837L70.22 115.26C70.18 115.282 70.1444 115.291 70.1044 115.291Z" fill="white"/>
<path d="M73.129 116.989C73.0534 116.989 72.9823 116.953 72.9378 116.882C72.8755 116.775 72.9066 116.641 73.0089 116.574L90.6041 105.771C90.7109 105.709 90.8443 105.74 90.911 105.847C90.9733 105.954 90.9422 106.087 90.8354 106.154L73.2402 116.958C73.2091 116.98 73.1691 116.989 73.129 116.989Z" fill="white"/>
<path d="M95.2563 103.908C95.2429 103.908 95.234 103.908 95.2207 103.908C94.0732 103.899 92.9924 103.565 92.1829 102.954C91.3512 102.33 90.893 101.501 90.8975 100.619C90.9064 98.8183 92.85 97.352 95.2607 97.3788C96.4082 97.3877 97.489 97.722 98.303 98.3326C99.1347 98.9565 99.5928 99.7855 99.5883 100.668C99.5839 101.555 99.1169 102.379 98.2763 102.99C97.4623 103.583 96.3904 103.908 95.2563 103.908ZM95.2251 97.8245C93.0902 97.8245 91.3512 99.0724 91.3423 100.619C91.3378 101.359 91.7292 102.063 92.4453 102.598C93.1836 103.15 94.1666 103.454 95.2207 103.462C96.2792 103.458 97.2622 103.173 98.0094 102.633C98.7344 102.108 99.1347 101.408 99.1391 100.668C99.1436 99.9281 98.7522 99.2239 98.0361 98.6891C97.2978 98.1364 96.3148 97.8334 95.2607 97.8245C95.2474 97.8245 95.234 97.8245 95.2251 97.8245Z" fill="white"/>
<path d="M117.019 119.013L107.07 113.348C106.46 113 105.713 113 105.104 113.352L74.5436 130.886C73.4495 131.514 73.445 133.092 74.5347 133.725L91.0624 143.82L89.3412 137.321L117.042 120.84C117.735 120.425 117.727 119.414 117.019 119.013Z" fill="#9FBFFF"/>
<path d="M117.446 115.487L107.483 109.813C106.874 109.466 106.127 109.466 105.517 109.818L74.9572 127.351C73.863 127.98 73.8586 129.557 74.9483 130.19L83.7726 135.338C83.9594 135.445 84.1551 135.53 84.3508 135.596L84.3419 135.601L91.4716 140.285L89.7503 133.787L117.464 117.297C118.153 116.891 118.145 115.884 117.446 115.487Z" fill="#FFB54A"/>
<path d="M86.6371 126.652C86.5615 126.652 86.4859 126.611 86.4458 126.545C86.3836 126.438 86.4192 126.304 86.5215 126.237L105.638 114.814C105.74 114.752 105.878 114.787 105.945 114.89C106.007 114.997 105.971 115.131 105.869 115.197L86.7527 126.62C86.7127 126.643 86.6727 126.652 86.6371 126.652Z" fill="white"/>
<path d="M89.6612 128.345C89.5856 128.345 89.5145 128.309 89.47 128.238C89.4077 128.131 89.4389 127.997 89.5412 127.931L107.136 117.127C107.239 117.065 107.377 117.096 107.443 117.203C107.506 117.31 107.474 117.444 107.368 117.51L89.7724 128.314C89.7413 128.336 89.7013 128.345 89.6612 128.345Z" fill="white"/>
<path d="M79.1293 94.6331L69.1797 88.9684C68.5704 88.6208 67.8232 88.6208 67.2138 88.9729L36.6491 106.511C35.5549 107.139 35.5505 108.717 36.6402 109.35L53.1679 119.445L51.4466 112.946L79.1471 96.4649C79.8409 96.0504 79.832 95.0342 79.1293 94.6331Z" fill="#9FBFFF"/>
<path d="M79.5561 91.1123L69.5932 85.4386C68.9839 85.091 68.2367 85.091 67.6273 85.4431L37.067 102.976C35.9729 103.605 35.9685 105.183 37.0581 105.816L45.8824 110.968C46.0692 111.075 46.2649 111.159 46.4606 111.226L46.4517 111.231L53.5814 115.915L51.8602 109.417L79.5739 92.9262C80.2633 92.5117 80.25 91.5089 79.5561 91.1123Z" fill="#FFB54A"/>
<path d="M48.7426 102.272C48.667 102.272 48.5913 102.232 48.5513 102.165C48.489 102.058 48.5246 101.925 48.6269 101.858L67.7432 90.4349C67.85 90.3725 67.9834 90.4082 68.0501 90.5107C68.1124 90.6177 68.0768 90.7514 67.9745 90.8182L48.8582 102.241C48.8182 102.263 48.7781 102.272 48.7426 102.272Z" fill="white"/>
<path d="M51.767 103.97C51.6914 103.97 51.6202 103.935 51.5758 103.863C51.5135 103.756 51.5446 103.623 51.6514 103.556L69.2466 92.7524C69.3533 92.6855 69.4868 92.7212 69.5535 92.8281C69.6157 92.9351 69.5846 93.0688 69.4823 93.1357L51.8871 103.939C51.8471 103.957 51.8071 103.97 51.767 103.97Z" fill="white"/>
</g>
<path d="M164.882 118.397L158.428 114.939L146.899 108.374C146.29 108.026 145.543 108.026 144.933 108.378L114.373 125.912C113.279 126.54 113.275 128.118 114.364 128.751L123.189 133.899C124.238 134.509 125.537 134.505 126.582 133.885L153.46 117.894L164.882 118.397Z" fill="#9FBFFF"/>
<path d="M165.86 114.458L159.406 110.999L147.878 104.434C147.269 104.086 146.521 104.086 145.912 104.438L115.352 121.972C114.258 122.6 114.253 124.178 115.343 124.811L124.167 129.963C125.217 130.574 126.515 130.569 127.561 129.95L154.438 113.958L165.86 114.458Z" fill="#4E69FF"/>
<path d="M120.298 123.309C120.222 123.309 120.151 123.269 120.107 123.202C120.044 123.095 120.075 122.961 120.182 122.895L136.096 113.29C136.198 113.228 136.336 113.259 136.403 113.366C136.465 113.473 136.434 113.606 136.327 113.673L120.413 123.278C120.373 123.3 120.333 123.309 120.298 123.309Z" fill="white"/>
<path d="M123.108 125.163C123.033 125.163 122.957 125.123 122.917 125.056C122.855 124.949 122.89 124.815 122.993 124.749L142.109 113.326C142.211 113.263 142.349 113.294 142.416 113.401C142.478 113.508 142.443 113.642 142.34 113.709L123.224 125.132C123.188 125.15 123.148 125.163 123.108 125.163Z" fill="white"/>
<path d="M126.133 126.857C126.057 126.857 125.986 126.821 125.941 126.75C125.879 126.643 125.91 126.509 126.017 126.442L143.612 115.639C143.715 115.576 143.852 115.607 143.919 115.714C143.981 115.821 143.95 115.955 143.844 116.022L126.248 126.825C126.213 126.848 126.173 126.857 126.133 126.857Z" fill="white"/>
<path d="M148.265 113.776C148.252 113.776 148.243 113.776 148.229 113.776C147.082 113.767 146.001 113.432 145.192 112.822C144.36 112.198 143.902 111.369 143.906 110.486C143.915 108.695 145.854 107.246 148.234 107.246C148.247 107.246 148.256 107.246 148.269 107.246C149.417 107.255 150.498 107.59 151.307 108.2C152.139 108.824 152.597 109.653 152.593 110.54C152.588 111.427 152.121 112.251 151.281 112.862C150.467 113.45 149.399 113.776 148.265 113.776ZM148.229 107.692C146.095 107.692 144.356 108.94 144.347 110.486C144.342 111.226 144.734 111.931 145.45 112.465C146.188 113.018 147.175 113.321 148.225 113.33C148.234 113.33 148.247 113.33 148.256 113.33C149.297 113.33 150.275 113.036 151.009 112.501C151.734 111.975 152.135 111.275 152.139 110.536C152.143 109.796 151.752 109.091 151.036 108.557C150.298 108.004 149.315 107.701 148.261 107.692C148.252 107.692 148.243 107.692 148.229 107.692Z" fill="white"/>
<path d="M125.421 95.6004L118.967 92.1418L107.439 85.5768C106.83 85.2292 106.082 85.2292 105.473 85.5813L74.9127 103.115C73.8186 103.743 73.8142 105.321 74.9039 105.954L83.7281 111.106C84.7778 111.716 86.0765 111.712 87.1217 111.092L113.999 95.1012L125.421 95.6004Z" fill="#9FBFFF"/>
<path d="M106.447 81.6414L75.8869 99.1748C74.7927 99.8032 74.7883 101.381 75.878 102.014L84.7023 107.166C85.7519 107.777 87.0507 107.772 88.0959 107.153L119.946 88.2019L108.418 81.6369C107.799 81.2893 107.052 81.2937 106.447 81.6414Z" fill="#4E69FF"/>
<path d="M126.395 91.6605L119.942 88.2019L114.969 91.1613L126.395 91.6605Z" fill="#4E69FF"/>
<path d="M80.8325 100.512C80.7568 100.512 80.6857 100.472 80.6412 100.405C80.5789 100.298 80.6101 100.164 80.7168 100.097L96.6308 90.4928C96.7375 90.4304 96.8709 90.4616 96.9377 90.5686C96.9999 90.6756 96.9688 90.8093 96.862 90.8761L80.9481 100.481C80.9125 100.503 80.8725 100.512 80.8325 100.512Z" fill="white"/>
<path d="M83.6478 102.366C83.5722 102.366 83.4966 102.326 83.4566 102.259C83.3943 102.152 83.4299 102.018 83.5322 101.951L102.649 90.5284C102.751 90.466 102.889 90.5017 102.955 90.6042C103.018 90.7112 102.982 90.8449 102.88 90.9117L83.7635 102.335C83.7235 102.357 83.6879 102.366 83.6478 102.366Z" fill="white"/>
<path d="M86.6723 104.06C86.5967 104.06 86.5255 104.02 86.481 103.953C86.4188 103.846 86.4499 103.712 86.5567 103.645L104.152 92.8416C104.254 92.7793 104.392 92.8105 104.459 92.913C104.521 93.0199 104.49 93.1536 104.383 93.2205L86.7879 104.024C86.7524 104.051 86.7123 104.06 86.6723 104.06Z" fill="white"/>
<path d="M108.8 90.9786C108.786 90.9786 108.777 90.9786 108.764 90.9786C107.617 90.9696 106.536 90.6354 105.726 90.0248C104.895 89.4008 104.437 88.5718 104.441 87.6894C104.445 86.8025 104.912 85.9779 105.753 85.3673C106.571 84.7701 107.648 84.4537 108.804 84.4492C109.952 84.4581 111.032 84.7924 111.846 85.403C112.678 86.027 113.136 86.8559 113.132 87.7384C113.127 88.6253 112.66 89.4499 111.82 90.0604C111.006 90.6532 109.934 90.9786 108.8 90.9786ZM108.769 84.8949C107.728 84.8949 106.749 85.1891 106.015 85.7239C105.29 86.2498 104.89 86.9495 104.886 87.6894C104.881 88.4292 105.273 89.1334 105.989 89.6682C106.727 90.2209 107.714 90.524 108.764 90.5329C108.773 90.5329 108.786 90.5329 108.8 90.5329C109.84 90.5329 110.819 90.2387 111.553 89.7039C112.278 89.178 112.678 88.4782 112.683 87.7384C112.687 86.9986 112.296 86.2944 111.58 85.7595C110.841 85.2069 109.854 84.9038 108.804 84.8949C108.791 84.8949 108.777 84.8949 108.769 84.8949Z" fill="white"/>
<path d="M130.563 106.083L120.613 100.418C120.004 100.07 119.257 100.07 118.647 100.423L88.0871 117.956C86.9929 118.584 86.9885 120.162 88.0782 120.795L104.606 130.89L102.885 124.392L130.585 107.91C131.279 107.5 131.266 106.484 130.563 106.083Z" fill="#9FBFFF"/>
<path d="M130.99 102.562L121.027 96.8883C120.417 96.5407 119.67 96.5407 119.061 96.8928L88.5006 114.426C87.4065 115.055 87.4021 116.632 88.4917 117.265L97.316 122.417C97.5028 122.524 97.6985 122.609 97.8942 122.676L97.8853 122.68L105.015 127.365L103.294 120.866L131.008 104.376C131.697 103.961 131.688 102.959 130.99 102.562Z" fill="#FFB54A"/>
<path d="M100.176 113.722C100.101 113.722 100.025 113.682 99.9849 113.615C99.9226 113.508 99.9582 113.374 100.061 113.308L119.177 101.885C119.279 101.822 119.417 101.858 119.484 101.96C119.546 102.067 119.51 102.201 119.408 102.268L100.292 113.691C100.256 113.713 100.216 113.722 100.176 113.722Z" fill="white"/>
<path d="M103.205 115.42C103.129 115.42 103.058 115.38 103.014 115.313C102.951 115.206 102.983 115.072 103.089 115.006L120.685 104.202C120.787 104.14 120.925 104.171 120.991 104.278C121.054 104.385 121.023 104.518 120.916 104.585L103.321 115.389C103.285 115.407 103.245 115.42 103.205 115.42Z" fill="white"/>
<path d="M92.6683 81.7083L82.7187 76.0436C82.1094 75.696 81.3622 75.696 80.7528 76.0481L50.1925 93.5815C49.0984 94.2099 49.0939 95.7876 50.1836 96.4205L66.7114 106.515L64.9901 100.017L92.6905 83.5356C93.3844 83.1212 93.3755 82.1094 92.6683 81.7083Z" fill="#9FBFFF"/>
<path d="M93.0952 78.1828L83.1323 72.5092C82.523 72.1616 81.7757 72.1616 81.1664 72.5137L50.6061 90.047C49.512 90.6755 49.5075 92.2532 50.5972 92.8861L59.4215 98.0382C59.6083 98.1452 59.804 98.2299 59.9997 98.2967L59.9908 98.3012L67.1205 102.985L65.3992 96.4873L93.113 79.9968C93.8024 79.5823 93.7935 78.5795 93.0952 78.1828Z" fill="#FFB54A"/>
<path d="M62.286 89.343C62.2104 89.343 62.1348 89.3029 62.0948 89.236C62.0325 89.129 62.0681 88.9953 62.1704 88.9285L81.2867 77.5055C81.3934 77.4431 81.5269 77.4787 81.5936 77.5813C81.6559 77.6882 81.6203 77.8219 81.518 77.8888L62.4017 89.3118C62.3616 89.3341 62.3216 89.343 62.286 89.343Z" fill="white"/>
<path d="M65.3102 91.0409C65.2346 91.0409 65.1634 91.0008 65.1189 90.9339C65.0567 90.827 65.0878 90.6933 65.1901 90.6264L82.7853 79.8229C82.892 79.7605 83.0255 79.7917 83.0922 79.8987C83.1544 80.0056 83.1233 80.1393 83.0166 80.2062L65.4258 91.0097C65.3902 91.032 65.3502 91.0409 65.3102 91.0409Z" fill="white"/>
<g opacity="0.5">
<path d="M138.885 63.319L137.461 63.3324C133.89 63.3636 130.972 60.4844 130.941 56.9056L130.883 49.672C130.852 46.0932 133.725 43.1694 137.297 43.1382L150.782 43.0268C150.435 42.9733 150.084 42.9421 149.724 42.9421L135.722 43.058C132.04 43.0892 129.082 46.1065 129.109 49.7924L129.171 57.2487C129.202 60.939 132.213 64.3887 135.891 64.3619L137.604 64.3486L143.088 69.5052L148.229 64.2416L144.097 68.4489L138.885 63.319Z" fill="#9FBFFF"/>
<path d="M143.092 69.8217L137.515 64.5759L135.891 64.5893C134.076 64.5982 132.333 63.8138 130.994 62.3564C129.704 60.9569 128.957 59.0984 128.944 57.2577L128.882 49.8013C128.868 47.9562 129.566 46.218 130.861 44.9032C132.151 43.5884 133.876 42.8575 135.718 42.8397L149.719 42.7238C150.048 42.7194 150.413 42.7506 150.813 42.8085L150.782 43.2497L137.297 43.3611C133.854 43.3879 131.074 46.2225 131.105 49.6721L131.163 56.9056C131.19 60.3374 133.988 63.1141 137.408 63.1141C137.426 63.1141 137.443 63.1141 137.461 63.1141L138.978 63.1007L144.093 68.1459L148.069 64.0946L148.385 64.4066L143.092 69.8217ZM137.688 64.1258L143.079 69.1933L143.79 68.4623L138.796 63.5375L137.466 63.5464C137.448 63.5464 137.43 63.5464 137.408 63.5464C133.743 63.5464 130.75 60.5736 130.718 56.8967L130.661 49.6632C130.638 46.7528 132.475 44.257 135.055 43.3121C133.587 43.4726 132.226 44.1322 131.177 45.2018C129.971 46.4319 129.313 48.0587 129.326 49.7835L129.389 57.2399C129.402 58.9736 130.109 60.7252 131.323 62.04C132.564 63.3904 134.17 64.1302 135.842 64.1302C135.86 64.1302 135.873 64.1302 135.891 64.1302L137.688 64.1258Z" fill="white"/>
<path d="M157.4 49.4493C157.369 45.8704 154.451 42.9913 150.88 43.0225H150.782L137.296 43.1339C133.725 43.1651 130.851 46.0888 130.883 49.6677L130.94 56.9012C130.972 60.4801 133.889 63.3592 137.461 63.328L138.884 63.3147L144.092 68.449L148.224 64.2417L149.216 63.23L151.04 63.2166C154.611 63.1854 157.484 60.2617 157.453 56.6828L157.4 49.4493Z" fill="#9FBFFF"/>
<path d="M144.097 68.7699L138.795 63.542L137.465 63.5509C137.448 63.5509 137.43 63.5509 137.408 63.5509C133.743 63.5509 130.749 60.5781 130.718 56.9012L130.66 49.6677C130.629 45.9729 133.605 42.9378 137.296 42.9066L150.88 42.7952C150.898 42.7952 150.92 42.7952 150.938 42.7952C152.703 42.7952 154.367 43.4771 155.625 44.7205C156.898 45.9774 157.609 47.6532 157.623 49.4448L157.68 56.6784C157.711 60.3731 154.736 63.4083 151.044 63.4395L149.31 63.4528L144.097 68.7699ZM138.978 63.0963L144.093 68.1415L149.127 63.0161L151.044 62.9982C154.487 62.9715 157.267 60.1369 157.236 56.6873L157.178 49.4538C157.164 47.7824 156.502 46.2181 155.314 45.0459C154.135 43.8871 152.583 43.2498 150.938 43.2498C150.92 43.2498 150.902 43.2498 150.884 43.2498L137.301 43.3612C133.858 43.3879 131.078 46.2225 131.11 49.6721L131.167 56.9057C131.194 60.3375 133.992 63.1141 137.412 63.1141C137.43 63.1141 137.448 63.1141 137.465 63.1141L138.978 63.0963Z" fill="white"/>
<path d="M139.205 54.343C138.818 55.1943 137.817 55.5731 136.968 55.1854C136.118 54.7976 135.74 53.7948 136.127 52.9436C136.514 52.0923 137.515 51.7135 138.364 52.1012C139.214 52.489 139.592 53.4918 139.205 54.343Z" fill="#9FBFFF"/>
<path d="M137.661 55.5597C137.399 55.5597 137.128 55.5062 136.874 55.3859C135.913 54.9491 135.486 53.8082 135.922 52.8455C136.131 52.3775 136.514 52.0254 136.994 51.8427C137.475 51.6644 137.991 51.6822 138.458 51.8917C139.418 52.3285 139.845 53.4694 139.409 54.4321C139.085 55.1408 138.391 55.5597 137.661 55.5597ZM137.666 52.1725C137.492 52.1725 137.319 52.2037 137.15 52.2661C136.781 52.4042 136.492 52.6761 136.327 53.0371C135.993 53.777 136.318 54.6505 137.056 54.9848C137.795 55.319 138.667 54.9937 139 54.2539C139.334 53.514 139.009 52.6405 138.271 52.3062C138.079 52.2171 137.87 52.1725 137.666 52.1725Z" fill="white"/>
<path d="M145.672 54.1602C145.285 55.0114 144.284 55.3903 143.434 55.0025C142.585 54.6148 142.207 53.612 142.594 52.7607C142.981 51.9094 143.982 51.5306 144.831 51.9184C145.685 52.3016 146.059 53.3089 145.672 54.1602Z" fill="#9FBFFF"/>
<path d="M144.133 55.3769C143.87 55.3769 143.599 55.3234 143.346 55.203C142.879 54.9891 142.527 54.6103 142.345 54.1289C142.167 53.6476 142.185 53.1306 142.394 52.6626C142.603 52.1946 142.985 51.8425 143.466 51.6598C143.946 51.4815 144.462 51.4994 144.929 51.7088C145.396 51.9228 145.747 52.3016 145.93 52.783C146.108 53.2643 146.09 53.7813 145.881 54.2493C145.556 54.9579 144.858 55.3769 144.133 55.3769ZM144.133 51.9852C143.959 51.9852 143.786 52.0164 143.617 52.0788C143.248 52.2169 142.959 52.4888 142.794 52.8498C142.63 53.2064 142.616 53.6075 142.754 53.9774C142.892 54.3473 143.163 54.637 143.524 54.8019C144.262 55.1362 145.134 54.8108 145.467 54.071C145.632 53.7144 145.645 53.3133 145.507 52.9434C145.369 52.5735 145.098 52.2838 144.738 52.1189C144.546 52.0297 144.342 51.9852 144.133 51.9852Z" fill="white"/>
<path d="M151.987 53.9775C151.6 54.8288 150.599 55.2076 149.75 54.8199C148.9 54.4322 148.522 53.4294 148.909 52.5781C149.296 51.7268 150.297 51.348 151.146 51.7357C151.996 52.1235 152.374 53.1263 151.987 53.9775Z" fill="#9FBFFF"/>
<path d="M150.448 55.1942C150.177 55.1942 149.91 55.1363 149.657 55.0204C149.19 54.8065 148.838 54.4276 148.656 53.9463C148.478 53.4649 148.496 52.9479 148.705 52.48C149.141 51.5173 150.279 51.0894 151.24 51.5262C151.707 51.7401 152.058 52.119 152.241 52.6003C152.419 53.0817 152.401 53.5987 152.192 54.0666C151.983 54.5346 151.6 54.8867 151.12 55.0694C150.902 55.1541 150.675 55.1942 150.448 55.1942ZM150.453 51.807C149.892 51.807 149.359 52.1279 149.114 52.6716C148.949 53.0282 148.936 53.4293 149.074 53.7992C149.212 54.1691 149.483 54.4588 149.843 54.6237C150.199 54.7842 150.6 54.7976 150.969 54.6638C151.338 54.5257 151.627 54.2538 151.792 53.8928C151.956 53.5363 151.969 53.1351 151.832 52.7652C151.694 52.3953 151.422 52.1056 151.062 51.9407C150.858 51.8471 150.653 51.807 150.453 51.807Z" fill="white"/>
</g>
<path d="M120.471 73.1687L119.323 73.1777C116.446 73.1999 114.093 70.8824 114.066 67.9988L114.017 62.1691C113.995 59.2855 116.308 56.9278 119.186 56.9011L130.056 56.812C129.776 56.7674 129.491 56.7407 129.202 56.7451L117.914 56.8387C114.947 56.8654 112.558 59.2945 112.585 62.2672L112.634 68.2795C112.661 71.2523 115.085 74.0378 118.051 74.0111L119.43 74.0022L123.851 78.1604L127.997 73.9175L124.665 77.3092L120.471 73.1687Z" fill="#C12736"/>
<path d="M135.393 61.9865C135.371 59.1029 133.018 56.7809 130.136 56.8076H130.056L119.186 56.8967C116.308 56.919 113.991 59.2767 114.017 62.1648L114.066 67.9944C114.088 70.878 116.441 73.2 119.323 73.1733L120.471 73.1644L124.67 77.3048L128.001 73.9131L128.802 73.0975L130.274 73.0842C133.151 73.0619 135.469 70.7042 135.442 67.8161L135.393 61.9865Z" fill="#F13C45"/>
<path d="M124.647 70.5081C124.594 70.5081 124.563 70.4814 124.523 70.4502C123.362 69.4919 122.228 68.4624 121.134 67.464L120.934 67.2813C119.986 66.4211 118.914 65.2356 119.021 63.7024C119.132 62.1113 120.409 60.908 121.992 60.908H121.997C123.095 60.908 124.109 61.5185 124.647 62.4634C125.186 61.5185 126.195 60.9124 127.298 60.9124C127.298 60.9124 127.298 60.9124 127.303 60.9124C128.521 60.9124 129.656 61.6745 130.123 62.8021C130.283 63.1854 130.358 63.5865 130.345 63.9877C130.305 65.4362 129.229 66.537 128.228 67.4551L128.081 67.5933C125.412 70.0535 124.865 70.5081 124.647 70.5081ZM121.992 61.3536C120.622 61.3536 119.559 62.352 119.466 63.7336C119.372 65.0796 120.364 66.1626 121.232 66.9515L121.432 67.1342C122.486 68.0969 123.576 69.0863 124.692 70.0134C124.932 69.8351 125.661 69.2156 127.774 67.2679L127.921 67.1298C128.899 66.2339 129.856 65.249 129.896 63.9788C129.905 63.64 129.842 63.3013 129.709 62.976C129.309 62.0133 128.339 61.3626 127.298 61.3626C127.298 61.3626 127.298 61.3626 127.294 61.3626C126.213 61.3626 125.235 62.0489 124.852 63.0695L124.643 63.6311L124.434 63.0695C124.056 62.04 123.077 61.3536 121.992 61.3536Z" fill="white"/>
<path d="M138.885 90.5908L137.461 90.6041C133.89 90.6353 130.972 87.7562 130.941 84.1773L130.883 76.9438C130.852 73.3649 133.725 70.4412 137.297 70.41L150.782 70.2985C150.435 70.2451 150.084 70.2139 149.724 70.2139L135.722 70.3298C132.04 70.3609 129.082 73.3783 129.109 77.0641L129.171 84.5205C129.202 88.2108 132.213 91.6604 135.891 91.6337L137.604 91.6203L143.088 96.7769L148.229 91.5178L144.097 95.7251L138.885 90.5908Z" fill="#3A5CE8"/>
<path d="M157.4 76.721C157.369 73.1421 154.452 70.263 150.88 70.2942H150.782L137.297 70.4056C133.725 70.4368 130.852 73.3605 130.883 76.9394L130.941 84.1729C130.972 87.7518 133.89 90.631 137.461 90.5998L138.885 90.5864L144.093 95.7207L148.225 91.5134L149.217 90.5017L151.04 90.4883C154.612 90.4572 157.485 87.5334 157.454 83.9546L157.4 76.721Z" fill="#4E69FF"/>
<path d="M153.656 77.4296H135.344C135.22 77.4296 135.122 77.3315 135.122 77.2067C135.122 77.0819 135.22 76.9839 135.344 76.9839H153.66C153.785 76.9839 153.883 77.0819 153.883 77.2067C153.878 77.3271 153.78 77.4296 153.656 77.4296Z" fill="white"/>
<path d="M153.656 84.4269H135.344C135.22 84.4269 135.122 84.3288 135.122 84.204C135.122 84.0793 135.22 83.9812 135.344 83.9812H153.66C153.785 83.9812 153.883 84.0793 153.883 84.204C153.883 84.3288 153.78 84.4269 153.656 84.4269Z" fill="white"/>
<path d="M144.169 80.9684H135.344C135.22 80.9684 135.122 80.8703 135.122 80.7455C135.122 80.6208 135.22 80.5227 135.344 80.5227H144.173C144.298 80.5227 144.396 80.6208 144.396 80.7455C144.391 80.8659 144.293 80.9684 144.169 80.9684Z" fill="white"/>
<path d="M153.656 80.9684H146.539C146.415 80.9684 146.317 80.8703 146.317 80.7455C146.317 80.6208 146.415 80.5227 146.539 80.5227H153.656C153.78 80.5227 153.878 80.6208 153.878 80.7455C153.878 80.8659 153.78 80.9684 153.656 80.9684Z" fill="white"/>
<g opacity="0.43">
<path d="M55.214 51.2587L52.5543 51.281C45.8827 51.3345 40.4298 45.9595 40.372 39.2742L40.2608 25.7609C40.2074 19.0755 45.5714 13.6114 52.2429 13.5535L77.5105 13.344C76.8388 13.237 76.1539 13.1835 75.4556 13.188L49.2985 13.4064C42.4224 13.4643 36.8894 19.0978 36.9472 25.9882L37.0629 39.9204C37.1207 46.8108 42.7426 53.2599 49.6188 53.2019L52.8123 53.1796L63.0554 62.8154L72.658 52.988L64.9412 60.85L55.214 51.2587Z" fill="white"/>
<path d="M63.0644 63.1273L52.7279 53.4068L49.6234 53.4291C49.5923 53.4291 49.5656 53.4291 49.5345 53.4291C42.8228 53.4291 36.9029 47.1404 36.8407 39.9247L36.725 25.9925C36.6983 22.6008 37.9882 19.4008 40.3633 16.9807C42.7383 14.5606 45.9096 13.2146 49.2943 13.1879L75.4513 12.9695C76.1363 12.965 76.8435 13.0185 77.5462 13.1255L77.5151 13.5667L52.2476 13.7762C49.0808 13.8029 46.1142 15.0642 43.8903 17.3239C41.6709 19.588 40.4611 22.583 40.4878 25.7563L40.599 39.2696C40.6524 45.79 45.9629 51.0536 52.4566 51.0536C52.4922 51.0536 52.5233 51.0536 52.5545 51.0536L55.3076 51.0313L64.9458 60.5289L72.5069 52.8274L72.8227 53.1394L63.0644 63.1273ZM52.8969 52.9611L63.0466 62.5078L64.6434 60.8721L55.1208 51.4859L52.5545 51.5082C52.5189 51.5082 52.4833 51.5082 52.4522 51.5082C45.7139 51.5082 40.2076 46.0441 40.1498 39.283L40.0386 25.7697C40.0119 22.476 41.2661 19.3696 43.5701 17.0208C45.2557 15.3049 47.3551 14.1417 49.6457 13.6336L49.2987 13.638C46.0296 13.6648 42.9696 14.9662 40.679 17.3016C38.3885 19.637 37.1431 22.7256 37.1698 25.997L37.2854 39.9292C37.3432 46.9087 43.0541 52.9923 49.5345 52.9923C49.5611 52.9923 49.5923 52.9923 49.619 52.9923L52.8969 52.9611Z" fill="#9FBFFF"/>
<path d="M89.795 25.3508C89.7416 18.6654 84.2887 13.2904 77.6127 13.3439H77.5059L52.2384 13.5534C45.5668 13.6069 40.2029 19.0755 40.2563 25.7608L40.3674 39.2741C40.4208 45.9594 45.8782 51.3344 52.5498 51.2809L55.2095 51.2586L64.9411 60.8499L72.6579 52.9879L74.5126 51.0982L77.924 51.0714C84.5956 51.018 89.9595 45.5494 89.9062 38.864L89.795 25.3508Z" fill="white"/>
<path d="M64.9457 61.1663L55.1207 51.4815L52.5544 51.5038C52.5188 51.5038 52.4832 51.5038 52.4521 51.5038C45.7138 51.5038 40.2075 46.0396 40.1497 39.2785L40.0385 25.7653C40.0118 22.4716 41.2661 19.3652 43.57 17.0164C45.8739 14.6676 48.9517 13.3618 52.2386 13.335L77.6129 13.1255C80.9042 13.1166 83.9998 14.3556 86.3437 16.6643C88.6877 18.973 89.9909 22.0571 90.0176 25.3508L90.1287 38.8641C90.1866 45.6608 84.7114 51.2364 77.9286 51.2943L74.6106 51.3211L64.9457 61.1663ZM55.3031 51.0358L64.9413 60.5334L74.4194 50.8754L77.9242 50.8442C84.4623 50.7907 89.7373 45.4157 89.684 38.8641L89.5728 25.3508C89.5461 22.1775 88.2874 19.2047 86.0324 16.9763C83.7729 14.7523 80.793 13.54 77.6173 13.5668L52.2431 13.7762C49.0763 13.803 46.1096 15.0643 43.8858 17.3239C41.6664 19.588 40.4566 22.583 40.4833 25.7564L40.5945 39.2696C40.6478 45.7901 45.9584 51.0536 52.4521 51.0536C52.4877 51.0536 52.5188 51.0536 52.5499 51.0536L55.3031 51.0358Z" fill="#9FBFFF"/>
<path d="M55.8059 34.4919C55.0853 36.083 53.2129 36.7872 51.625 36.0651C50.0372 35.3431 49.3344 33.4668 50.055 31.8757C50.7755 30.2846 52.648 29.5804 54.2358 30.3024C55.8281 31.0244 56.5309 32.9007 55.8059 34.4919Z" fill="white"/>
<path d="M52.9281 36.5687C52.461 36.5687 51.9851 36.4707 51.5359 36.2656C49.8369 35.4946 49.0852 33.4801 49.8547 31.7776C50.6241 30.075 52.6345 29.3218 54.3335 30.0928C55.1564 30.4672 55.7835 31.1402 56.0993 31.987C56.4151 32.8338 56.3839 33.7564 56.0103 34.5809C55.4455 35.8333 54.2134 36.5687 52.9281 36.5687ZM52.9369 30.2399C51.8206 30.2399 50.7487 30.8817 50.2594 31.9647C49.5878 33.44 50.2461 35.1915 51.7183 35.8601C52.4344 36.1854 53.2305 36.2122 53.9644 35.9358C54.6982 35.6595 55.2809 35.1158 55.6056 34.3982C55.9303 33.6806 55.957 32.8829 55.6812 32.1475C55.4054 31.4121 54.8628 30.8282 54.1467 30.5029C53.7553 30.3246 53.3417 30.2399 52.9369 30.2399Z" fill="#9FBFFF"/>
<path d="M68.073 33.6255C68.5102 31.9336 67.4959 30.2069 65.8075 29.7687C64.1191 29.3306 62.3959 30.347 61.9587 32.0389C61.5214 33.7307 62.5357 35.4575 64.2241 35.8956C65.9126 36.3337 67.6357 35.3174 68.073 33.6255Z" fill="white"/>
<path d="M65.017 36.2255C64.5411 36.2255 64.0652 36.123 63.6204 35.918C61.9214 35.147 61.1697 33.1325 61.9391 31.4299C62.3128 30.6054 62.9844 29.977 63.8294 29.6605C64.6745 29.3441 65.5952 29.3753 66.4136 29.7497C67.2364 30.1241 67.8635 30.797 68.1793 31.6439C68.4951 32.4907 68.464 33.4132 68.0903 34.2333C67.7167 35.0578 67.0451 35.6863 66.2001 36.0027C65.8176 36.1542 65.4173 36.2255 65.017 36.2255ZM65.0214 29.8923C63.905 29.8923 62.8331 30.5341 62.3439 31.6171C61.6723 33.0923 62.3261 34.8439 63.8027 35.5124C64.5188 35.8378 65.315 35.8645 66.0488 35.5882C66.7827 35.3119 67.3654 34.7681 67.6901 34.0506C68.0147 33.333 68.0414 32.5352 67.7657 31.7998C67.4899 31.0645 66.9473 30.4806 66.2312 30.1553C65.8398 29.977 65.4262 29.8923 65.0214 29.8923Z" fill="#9FBFFF"/>
<path d="M79.6858 33.8053C78.9652 35.3964 77.0927 36.1006 75.5049 35.3786C73.9171 34.6566 73.2143 32.7802 73.9349 31.1891C74.6554 29.598 76.5279 28.8938 78.1157 29.6159C79.708 30.3379 80.4107 32.2142 79.6858 33.8053Z" fill="white"/>
<path d="M76.808 35.8868C76.341 35.8868 75.8651 35.7887 75.4158 35.5837C74.593 35.2093 73.9659 34.5363 73.6501 33.6895C73.3343 32.8427 73.3654 31.9201 73.739 31.1001C74.5085 29.3975 76.5189 28.6443 78.2179 29.4154C79.9169 30.1864 80.6686 32.2009 79.8991 33.9034C79.3254 35.1469 78.0934 35.8868 76.808 35.8868ZM76.8169 29.5535C75.7005 29.5535 74.6286 30.1953 74.1393 31.2783C73.8147 31.9959 73.788 32.7937 74.0637 33.5291C74.3395 34.2644 74.8821 34.8483 75.5982 35.1737C77.0748 35.8466 78.8183 35.1915 79.4855 33.7118C80.1571 32.2366 79.4988 30.485 78.0266 29.8165C77.6352 29.6382 77.2216 29.5535 76.8169 29.5535Z" fill="#9FBFFF"/>
<path d="M87.2909 54.7975L85.9521 54.8064C82.5941 54.8331 79.8454 52.1278 79.8187 48.7629L79.7609 41.9617C79.7342 38.5967 82.434 35.8423 85.792 35.8156L98.4725 35.7086C98.1478 35.6596 97.8142 35.6284 97.4762 35.6284L84.3065 35.7398C80.8417 35.7666 78.0619 38.6056 78.0886 42.0731L78.1464 49.0882C78.1731 52.5601 81.0063 55.8047 84.4666 55.7735L86.0767 55.7602L91.236 60.6093L96.0707 55.6621L92.1878 59.6198L87.2909 54.7975Z" fill="white"/>
<path d="M91.2452 60.9301L85.9924 55.9919L84.4713 56.0008C82.7456 56.0142 81.1221 55.2699 79.859 53.8971C78.6448 52.5779 77.942 50.8308 77.9287 49.0926L77.8709 42.0775C77.8397 38.4897 80.7307 35.5481 84.3112 35.5169L97.4809 35.4055C97.7966 35.401 98.1347 35.4278 98.5127 35.4857L98.4816 35.927L85.8011 36.0339C84.2355 36.0473 82.7678 36.6713 81.6737 37.7899C80.5751 38.9086 79.9791 40.3883 79.9924 41.9571L80.0502 48.7583C80.0636 50.3272 80.6863 51.7979 81.8026 52.8943C82.919 53.9952 84.3957 54.5969 85.9613 54.579L87.3934 54.5657L92.2014 59.3033L95.9286 55.5061L96.2444 55.818L91.2452 60.9301ZM86.1703 55.5417L91.2363 60.3017L91.8901 59.6331L87.2066 55.0158L85.9613 55.0247C85.9435 55.0247 85.9257 55.0247 85.9079 55.0247C84.2444 55.0247 82.6744 54.3829 81.4869 53.2108C80.286 52.0252 79.6188 50.4475 79.6055 48.7583L79.5476 41.9571C79.5343 40.268 80.1748 38.6769 81.3579 37.4735C81.9939 36.8228 82.75 36.3281 83.5728 36.0116C80.5929 36.4083 78.2978 38.9799 78.3245 42.0686L78.3823 49.0837C78.3957 50.7105 79.0584 52.355 80.197 53.5896C81.3757 54.8687 82.879 55.5685 84.4802 55.5506L86.1703 55.5417Z" fill="#9FBFFF"/>
<path d="M104.704 41.7522C104.677 38.3873 101.928 35.682 98.5703 35.7087H98.4769L85.7964 35.8157C82.4384 35.8424 79.7386 38.5968 79.7653 41.9617L79.8232 48.7629C79.8498 52.1279 82.5985 54.8332 85.9566 54.8065L87.2953 54.7975L92.1967 59.6243L96.0796 55.6666L97.0136 54.7129L98.7304 54.6995C102.088 54.6727 104.788 51.9184 104.762 48.5534L104.704 41.7522Z" fill="white"/>
<path d="M92.1925 59.9407L87.2022 55.0203L85.9568 55.0292C84.2755 55.0515 82.6833 54.4008 81.4824 53.2152C80.2815 52.0297 79.6143 50.452 79.601 48.7628L79.5432 41.9616C79.5298 40.2724 80.1703 38.6813 81.3534 37.478C82.532 36.2746 84.111 35.6061 85.7967 35.5927L98.5705 35.4857C100.256 35.4501 101.844 36.1142 103.045 37.2997C104.246 38.4852 104.913 40.063 104.926 41.7521L104.984 48.5533C104.997 50.2425 104.357 51.8336 103.174 53.037C101.991 54.2403 100.416 54.9089 98.7306 54.9222L97.1072 54.9356L92.1925 59.9407ZM87.3801 54.5746L92.1881 59.3123L96.916 54.4944L98.7262 54.481C100.292 54.4676 101.76 53.8437 102.854 52.725C103.952 51.6063 104.548 50.1266 104.535 48.5578L104.477 41.7566C104.464 40.1878 103.841 38.717 102.725 37.6206C101.622 36.5331 100.163 35.9359 98.615 35.9359C98.5972 35.9359 98.5839 35.9359 98.5661 35.9359L85.7922 36.0429C84.2266 36.0562 82.7589 36.6802 81.6647 37.7989C80.5662 38.9175 79.9702 40.3972 79.9835 41.9661L80.0413 48.7673C80.0547 50.3361 80.6773 51.8069 81.7937 52.9032C82.9101 54.0041 84.3867 54.6058 85.9523 54.588L87.3801 54.5746Z" fill="#9FBFFF"/>
<path d="M92.1523 51.8159C91.3251 51.8159 90.5467 51.6955 89.8173 51.4549C89.0923 51.2142 88.4563 50.8443 87.9225 50.3451C87.3844 49.8459 86.9618 49.2175 86.6549 48.4598C86.3481 47.7022 86.1924 46.7974 86.1924 45.7501C86.1924 44.7339 86.3436 43.8336 86.6461 43.0403C86.9485 42.2514 87.3799 41.5873 87.9359 41.048C88.4919 40.5088 89.1635 40.0987 89.9418 39.8179C90.7202 39.5372 91.583 39.3945 92.5393 39.3945C93.5222 39.3945 94.3762 39.5238 95.0967 39.7867C95.8173 40.0497 96.4221 40.4241 96.9025 40.9099C97.3829 41.3957 97.7431 41.9929 97.9788 42.6971C98.2146 43.4013 98.3302 44.1857 98.3302 45.0592C98.3302 46.2893 98.0723 47.252 97.5608 47.9428C97.0493 48.6337 96.2887 48.9813 95.288 48.9813C95.0211 48.9813 94.7898 48.9412 94.5897 48.8654C94.3895 48.7896 94.2205 48.6871 94.0826 48.5668C93.9448 48.442 93.838 48.3083 93.7669 48.1568C93.6957 48.0097 93.6512 47.8582 93.629 47.7022H93.5667C93.2998 48.1033 92.9529 48.4019 92.5215 48.6025C92.0901 48.803 91.6453 48.9011 91.1872 48.9011C90.4889 48.9011 89.9596 48.6515 89.5904 48.1568C89.2213 47.6576 89.0389 46.9935 89.0389 46.1645C89.0389 45.5896 89.1234 45.0592 89.3013 44.5734C89.4748 44.0876 89.7239 43.6642 90.0486 43.3121C90.3688 42.96 90.7646 42.6837 91.2317 42.4876C91.6987 42.2915 92.2191 42.1935 92.7928 42.1935C93.162 42.1935 93.5623 42.2469 93.9981 42.3494C94.2606 42.4118 94.5274 42.4921 94.7987 42.5857C95.1101 42.6971 95.2969 43.0224 95.2346 43.3478L94.7409 45.9506C94.7187 46.0843 94.7009 46.218 94.6786 46.3606C94.6564 46.4988 94.6475 46.6281 94.6475 46.7529C94.6475 46.9891 94.7009 47.1807 94.8076 47.3278C94.9144 47.4749 95.1056 47.5506 95.3814 47.5506C95.7683 47.5506 96.0752 47.3322 96.2932 46.891C96.5155 46.4498 96.6223 45.8392 96.6223 45.0592C96.6223 43.789 96.2887 42.7907 95.626 42.0731C94.9588 41.3556 93.9314 40.9946 92.5393 40.9946C91.841 40.9946 91.2094 41.1015 90.6357 41.311C90.0619 41.5205 89.5727 41.828 89.1679 42.2336C88.7632 42.6391 88.4518 43.1383 88.2294 43.7266C88.0071 44.3149 87.9003 44.9924 87.9003 45.7501C87.9003 46.53 88.0115 47.203 88.2294 47.7646C88.4474 48.3306 88.7498 48.7941 89.1368 49.164C89.5193 49.5339 89.9729 49.8058 90.4889 49.9796C91.0048 50.1535 91.5608 50.2426 92.1568 50.2426C92.566 50.2426 93.033 50.1891 93.5623 50.0821C93.9003 50.0108 94.2561 49.9306 94.6164 49.8326C94.9588 49.739 95.3191 49.9306 95.4303 50.2693L95.5015 50.4877C95.6216 50.8532 95.4125 51.2499 95.0389 51.3479C94.6164 51.4638 94.2072 51.5574 93.8158 51.6376C93.2064 51.7579 92.6549 51.8159 92.1523 51.8159ZM91.5875 47.4615C91.9477 47.4615 92.2813 47.3189 92.5927 47.0381C92.904 46.7573 93.1175 46.3072 93.2287 45.6921L93.46 44.3907C93.5311 43.9851 93.2287 43.6018 92.8195 43.5974C92.815 43.5974 92.815 43.5974 92.8106 43.5974C92.5037 43.5974 92.2235 43.6598 91.9655 43.789C91.7076 43.9183 91.4896 44.0965 91.3073 44.3283C91.1249 44.5601 90.9781 44.8319 90.8758 45.1439C90.7735 45.4559 90.7202 45.7991 90.7202 46.169C90.7202 46.5478 90.7869 46.8598 90.9203 47.1005C91.0582 47.3412 91.2806 47.4615 91.5875 47.4615Z" fill="white"/>
<path d="M92.1526 52.0387C91.303 52.0387 90.4936 51.9139 89.7463 51.6643C88.9947 51.4147 88.3275 51.027 87.7671 50.51C87.2067 49.993 86.7619 49.3289 86.4461 48.5445C86.1303 47.7645 85.9702 46.8241 85.9702 45.75C85.9702 44.7115 86.1259 43.7711 86.4372 42.96C86.7486 42.1444 87.2022 41.4446 87.7804 40.8875C88.3586 40.3304 89.0569 39.8981 89.862 39.6084C90.6626 39.3187 91.561 39.1716 92.5351 39.1716C93.5402 39.1716 94.4253 39.3098 95.1681 39.5772C95.9153 39.8491 96.5514 40.2457 97.0539 40.7538C97.5565 41.2619 97.9346 41.8948 98.1837 42.6257C98.4238 43.3477 98.5484 44.1678 98.5484 45.0592C98.5484 46.3338 98.2771 47.35 97.7389 48.0765C97.1829 48.8252 96.3601 49.2041 95.2882 49.2041C94.9946 49.2041 94.7322 49.1595 94.5098 49.0748C94.2875 48.9902 94.0918 48.8743 93.9361 48.7317C93.776 48.589 93.6514 48.4286 93.5669 48.2548C93.5491 48.2147 93.5313 48.179 93.5136 48.1389C93.2645 48.4241 92.962 48.647 92.6151 48.8074C92.157 49.0214 91.6766 49.1283 91.1874 49.1283C90.4179 49.1283 89.8219 48.8475 89.4128 48.2904C89.0169 47.7556 88.8168 47.0425 88.8168 46.1645C88.8168 45.5673 88.9102 45.0057 89.0925 44.4976C89.2749 43.9851 89.5417 43.5349 89.8842 43.1605C90.2267 42.7817 90.6537 42.4876 91.1474 42.2825C91.9524 41.9438 92.8909 41.8591 94.0473 42.131C94.3186 42.1934 94.5944 42.2781 94.8746 42.3761C95.2882 42.5232 95.5373 42.96 95.4572 43.3923L94.9012 46.3918C94.8835 46.521 94.8746 46.6369 94.8746 46.7528C94.8746 46.94 94.9146 47.0915 94.9946 47.1985C95.0569 47.2876 95.1903 47.3277 95.3905 47.3277C95.6885 47.3277 95.9242 47.1495 96.1066 46.7885C96.3112 46.3784 96.4135 45.799 96.4135 45.0547C96.4135 43.8469 96.0977 42.8931 95.475 42.2201C94.8568 41.5516 93.8738 41.2129 92.5528 41.2129C91.8857 41.2129 91.2719 41.3154 90.7248 41.516C90.1867 41.7121 89.7196 42.0062 89.3371 42.3895C88.9591 42.7683 88.6611 43.2452 88.452 43.8023C88.243 44.3639 88.1363 45.0191 88.1363 45.75C88.1363 46.4988 88.243 47.1495 88.452 47.6843C88.6611 48.2147 88.9457 48.6603 89.306 49.0035C89.6618 49.3467 90.0888 49.6052 90.5736 49.7701C91.0629 49.935 91.601 50.0197 92.1703 50.0197C92.5617 50.0197 93.0199 49.9662 93.5313 49.8637C93.8605 49.7968 94.2118 49.7122 94.5721 49.6186C95.0302 49.4982 95.5061 49.7523 95.6529 50.2024L95.7241 50.4208C95.7997 50.6526 95.7774 50.9111 95.6618 51.1295C95.5462 51.3478 95.3505 51.5038 95.1103 51.5707C94.6833 51.6866 94.2652 51.7846 93.8694 51.8604C93.2378 51.9807 92.6685 52.0387 92.1526 52.0387ZM92.5395 39.6218C91.6188 39.6218 90.7693 39.7599 90.0176 40.0318C89.2704 40.3037 88.6255 40.7003 88.0918 41.2129C87.5581 41.7254 87.1444 42.3717 86.8553 43.1249C86.5662 43.887 86.415 44.7695 86.415 45.7545C86.415 46.7662 86.5662 47.6486 86.8598 48.3796C87.1533 49.106 87.5625 49.7122 88.0695 50.1846C88.581 50.657 89.1904 51.0136 89.8842 51.2453C90.587 51.4771 91.3475 51.5974 92.1481 51.5974C92.6329 51.5974 93.1755 51.5395 93.7626 51.4236C94.1496 51.3478 94.5543 51.2543 94.9724 51.1384C95.0925 51.1072 95.1903 51.027 95.2482 50.92C95.306 50.8086 95.3193 50.6838 95.2793 50.5634L95.2081 50.345C95.1325 50.1177 94.8923 49.9885 94.6655 50.0509C94.2964 50.1489 93.9361 50.2336 93.5981 50.3049C93.0599 50.4164 92.5706 50.4698 92.1481 50.4698C91.5343 50.4698 90.9472 50.3762 90.409 50.198C89.862 50.0152 89.3816 49.7211 88.9724 49.3333C88.5677 48.9411 88.243 48.4464 88.0117 47.8536C87.7804 47.2653 87.6648 46.5612 87.6648 45.7545C87.6648 44.97 87.7804 44.2659 88.0073 43.6508C88.2386 43.0313 88.5721 42.5054 88.9947 42.0775C89.4216 41.6497 89.942 41.3243 90.5425 41.1015C91.1385 40.8831 91.8056 40.7717 92.5217 40.7717C93.9717 40.7717 95.0658 41.1594 95.773 41.9215C96.4757 42.6792 96.8316 43.7355 96.8316 45.0592C96.8316 45.8703 96.7115 46.521 96.4757 46.989C96.1511 47.6397 95.6929 47.7734 95.3638 47.7734C95.0124 47.7734 94.7589 47.6665 94.6077 47.457C94.4743 47.2698 94.4031 47.0336 94.4031 46.7483C94.4031 46.6146 94.4164 46.472 94.4342 46.3249L94.4965 45.9149L94.9902 43.3076C95.0302 43.0892 94.9057 42.8708 94.6967 42.7951C94.4342 42.7015 94.1718 42.6257 93.9183 42.5633C92.8508 42.3137 92.0102 42.3895 91.2897 42.6926C90.8583 42.8753 90.4847 43.1338 90.1867 43.4592C89.8842 43.789 89.6485 44.1901 89.4884 44.6447C89.3238 45.1037 89.2393 45.6163 89.2393 46.1645C89.2393 46.9444 89.4083 47.5684 89.7463 48.023C90.0755 48.4642 90.538 48.6782 91.1652 48.6782C91.5921 48.6782 92.0102 48.5846 92.4061 48.3974C92.7975 48.2147 93.1177 47.9383 93.3579 47.5773L93.4246 47.4793H93.7982L93.8249 47.6709C93.8427 47.8002 93.8827 47.9294 93.945 48.0587C94.0028 48.179 94.0918 48.2949 94.2074 48.3974C94.323 48.5044 94.4743 48.589 94.6477 48.6559C94.8212 48.7227 95.0302 48.7584 95.266 48.7584C96.2044 48.7584 96.8894 48.4464 97.3608 47.8091C97.8412 47.1584 98.0858 46.2313 98.0858 45.0547C98.0858 44.2124 97.9702 43.4413 97.7433 42.7639C97.521 42.0953 97.174 41.5249 96.7204 41.0658C96.2623 40.6023 95.684 40.2457 94.9991 39.9962C94.3275 39.7466 93.4913 39.6218 92.5395 39.6218ZM91.5877 47.6843C91.2007 47.6843 90.9027 47.5194 90.7337 47.2074C90.5825 46.9355 90.5069 46.5834 90.5069 46.1689C90.5069 45.7767 90.5603 45.4113 90.6715 45.077C90.7827 44.7427 90.9383 44.4441 91.1385 44.1901C91.3431 43.936 91.5877 43.7355 91.8723 43.5929C92.157 43.4502 92.4772 43.3789 92.8153 43.3789C93.0777 43.3789 93.3179 43.4948 93.4824 43.6909C93.6559 43.8959 93.727 44.1678 93.6781 44.4308L93.4468 45.7322C93.3268 46.3962 93.0866 46.891 92.7396 47.2074C92.3883 47.5238 92.0013 47.6843 91.5877 47.6843ZM92.8197 43.8202C92.5395 43.8202 92.2904 43.8781 92.068 43.9895C91.8412 44.1009 91.6455 44.2659 91.4809 44.4664C91.3119 44.6759 91.183 44.9255 91.0895 45.2107C90.9961 45.5004 90.9472 45.8213 90.9472 46.1645C90.9472 46.5032 91.005 46.784 91.1207 46.989C91.2141 47.1584 91.3609 47.2341 91.5877 47.2341C91.8901 47.2341 92.1703 47.1138 92.4461 46.8687C92.7219 46.6235 92.9087 46.2091 93.0154 45.6475L93.2467 44.3461C93.2689 44.2124 93.2333 44.0742 93.1444 43.9717C93.0599 43.8781 92.9442 43.8246 92.8197 43.8202Z" fill="#9FBFFF"/>
</g>
<path d="M37.9035 60.2704L35.2437 60.2927C28.5722 60.3462 23.1192 54.9712 23.0614 48.2859L22.9502 34.7726C22.8969 28.0873 28.2608 22.6231 34.9324 22.5652L60.1999 22.3557C59.5283 22.2487 58.8433 22.1953 58.1451 22.1997L31.988 22.4181C25.1118 22.476 19.5789 28.1096 19.6367 34.9999L19.7523 48.9321C19.8101 55.8225 25.4321 62.2716 32.3082 62.2136L35.5017 62.1914L45.7448 71.8272L55.3474 61.9997L47.6306 69.8617L37.9035 60.2704Z" fill="#3A5CE8"/>
<path d="M72.4844 34.3625C72.4311 27.6771 66.9737 22.3021 60.3021 22.3556H60.1954L34.9279 22.5651C28.2563 22.6186 22.8923 28.0872 22.9457 34.7725L23.0569 48.2858C23.1103 54.9711 28.5676 60.3461 35.2392 60.2926L37.8989 60.2704L47.6306 69.8616L55.3474 61.9996L57.2021 60.1099L60.6135 60.0832C67.285 60.0297 72.649 54.5611 72.5956 47.8758L72.4844 34.3625Z" fill="#4E69FF"/>
<path d="M35.622 45.5805C35.146 45.5805 34.6701 45.478 34.2254 45.273C32.5263 44.502 31.7747 42.4874 32.5441 40.7849C32.9177 39.9604 33.5893 39.332 34.4344 39.0155C35.2795 38.6991 36.2002 38.7303 37.0185 39.1047C37.8414 39.479 38.4685 40.152 38.7843 40.9988C39.1001 41.8456 39.0689 42.7682 38.6953 43.5883C38.3217 44.4128 37.6501 45.0412 36.805 45.3577C36.4225 45.5092 36.0222 45.5805 35.622 45.5805ZM35.6264 39.2473C35.2795 39.2473 34.9281 39.3097 34.5945 39.4345C33.8607 39.7108 33.278 40.2545 32.9533 40.9721C32.2817 42.4473 32.9355 44.1989 34.4122 44.8674C35.1283 45.1928 35.9244 45.2195 36.6583 44.9432C37.3921 44.6669 37.9748 44.1231 38.2995 43.4056C38.6242 42.688 38.6509 41.8902 38.3751 41.1548C38.0993 40.4194 37.5567 39.8356 36.8406 39.5102C36.4492 39.3364 36.04 39.2473 35.6264 39.2473Z" fill="white"/>
<path d="M47.702 45.2328C47.235 45.2328 46.7591 45.1347 46.3098 44.9297C44.6108 44.1587 43.8591 42.1442 44.6286 40.4416C45.0022 39.6171 45.6738 38.9887 46.5189 38.6723C47.3639 38.3558 48.2846 38.387 49.103 38.7614C50.802 39.5324 51.5537 41.547 50.7842 43.2495C50.2194 44.493 48.9874 45.2328 47.702 45.2328ZM47.7109 38.8996C47.3639 38.8996 47.0126 38.962 46.679 39.0868C45.9451 39.3631 45.3625 39.9068 45.0378 40.6244C44.3662 42.0996 45.02 43.8512 46.4966 44.5197C47.9688 45.1927 49.7168 44.5375 50.384 43.0578C51.0556 41.5826 50.3973 39.8311 48.9251 39.1625C48.5337 38.9887 48.1245 38.8996 47.7109 38.8996Z" fill="white"/>
<path d="M59.5014 44.8986C59.0255 44.8986 58.5496 44.7961 58.1048 44.591C57.282 44.2167 56.6548 43.5437 56.3391 42.6969C56.0233 41.8501 56.0544 40.9275 56.428 40.1074C56.8016 39.2829 57.4732 38.6545 58.3183 38.338C59.1634 38.0216 60.084 38.0528 60.9069 38.4272C61.7297 38.8016 62.3568 39.4745 62.6726 40.3214C62.9884 41.1682 62.9573 42.0907 62.5837 42.9108C62.2101 43.7353 61.5384 44.3637 60.6934 44.6802C60.302 44.8228 59.9017 44.8986 59.5014 44.8986ZM59.5058 38.5653C59.1589 38.5653 58.8075 38.6277 58.474 38.7525C57.7401 39.0289 57.1574 39.5726 56.8328 40.2902C56.5081 41.0077 56.4814 41.8055 56.7571 42.5409C57.0329 43.2763 57.5755 43.8601 58.2916 44.1855C59.0077 44.5108 59.8038 44.5376 60.5377 44.2612C61.2716 43.9849 61.8542 43.4412 62.1789 42.7236C62.5036 42.0061 62.5303 41.2083 62.2545 40.4729C61.9788 39.7375 61.4361 39.1536 60.7201 38.8283C60.3287 38.65 59.915 38.5653 59.5058 38.5653Z" fill="white"/>
<path d="M69.9848 63.8092L68.646 63.8181C65.288 63.8449 62.5393 61.1395 62.5126 57.7746L62.4548 50.9734C62.4281 47.6084 65.1278 44.8541 68.4859 44.8273L81.1663 44.7204C80.8416 44.6713 80.5081 44.6401 80.17 44.6401L67.0003 44.7516C63.5356 44.7783 60.7557 47.6173 60.7824 51.0848L60.8402 58.0999C60.8669 61.5718 63.7001 64.8165 67.1604 64.7853L68.7705 64.7719L73.9299 69.621L78.7601 64.6783L74.8817 68.6271L69.9848 63.8092Z" fill="#E29837"/>
<path d="M87.3932 50.764C87.3665 47.399 84.6178 44.6937 81.2598 44.7204H81.1664L68.4859 44.8274C65.1279 44.8541 62.4281 47.6085 62.4548 50.9734L62.5126 57.7746C62.5393 61.1396 65.288 63.8449 68.646 63.8182L69.9848 63.8093L74.8817 68.6361L78.7601 64.6873L79.7031 63.729L81.4199 63.7157C84.7779 63.6889 87.4777 60.9346 87.451 57.5696L87.3932 50.764Z" fill="#FFB54A"/>
<path d="M74.8462 60.8276C74.0189 60.8276 73.2405 60.7073 72.5111 60.4666C71.7861 60.2259 71.1501 59.856 70.6164 59.3568C70.0782 58.8576 69.6557 58.2292 69.3488 57.4716C69.0419 56.7139 68.8862 55.8091 68.8862 54.7618C68.8862 53.7456 69.0374 52.8453 69.3399 52.052C69.6423 51.2631 70.0738 50.599 70.6297 50.0598C71.1857 49.5205 71.8573 49.1104 72.6357 48.8297C73.414 48.5489 74.2769 48.4062 75.2331 48.4062C76.2161 48.4062 77.07 48.5355 77.7906 48.7985C78.5111 49.0614 79.116 49.4358 79.5963 49.9216C80.0767 50.4074 80.437 51.0046 80.6727 51.7088C80.9084 52.413 81.0241 53.1974 81.0241 54.071C81.0241 55.3011 80.7661 56.2637 80.2546 56.9546C79.7431 57.6454 78.9826 57.993 77.9818 57.993C77.715 57.993 77.4837 57.9529 77.2835 57.8771C77.0834 57.8014 76.9144 57.6989 76.7765 57.5785C76.6386 57.4537 76.5319 57.32 76.4607 57.1729C76.3895 57.0259 76.3451 56.8743 76.3228 56.7183H76.2606C75.9937 57.1195 75.6468 57.4181 75.2153 57.6186C74.7839 57.8192 74.3391 57.9172 73.881 57.9172C73.1827 57.9172 72.6535 57.6677 72.2843 57.1729C71.9151 56.6738 71.7328 56.0097 71.7328 55.1807C71.7328 54.6058 71.8173 54.0754 71.9952 53.5896C72.1686 53.1038 72.4177 52.6804 72.7424 52.3283C73.0626 51.9762 73.4585 51.6999 73.9255 51.5038C74.3925 51.3077 74.9129 51.2096 75.4866 51.2096C75.8558 51.2096 76.2561 51.2631 76.692 51.3656C76.9544 51.428 77.2213 51.5082 77.4926 51.6018C77.8039 51.7133 77.9907 52.0386 77.9285 52.364L77.4348 54.9668C77.4125 55.1005 77.3947 55.2342 77.3725 55.3768C77.3502 55.515 77.3413 55.6442 77.3413 55.769C77.3413 56.0052 77.3947 56.1969 77.5015 56.344C77.6082 56.491 77.7995 56.5668 78.0752 56.5668C78.4622 56.5668 78.7691 56.3484 78.987 55.9072C79.2094 55.466 79.3161 54.8554 79.3161 54.0754C79.3161 52.8052 78.9826 51.8069 78.3198 51.0893C77.6527 50.3717 76.6253 50.0107 75.2331 50.0107C74.5348 50.0107 73.9033 50.1177 73.3295 50.3272C72.7557 50.5366 72.2665 50.8442 71.8618 51.2497C71.457 51.6553 71.1457 52.1545 70.9233 52.7428C70.7009 53.3311 70.5942 54.0086 70.5942 54.7662C70.5942 55.5462 70.7053 56.2192 70.9233 56.7807C71.1412 57.3468 71.4437 57.8103 71.8306 58.1802C72.2131 58.5501 72.6668 58.822 73.1827 58.9958C73.6987 59.1696 74.2546 59.2588 74.8506 59.2588C75.2598 59.2588 75.7268 59.2053 76.2561 59.0983C76.5941 59.027 76.95 58.9468 77.3102 58.8487C77.6527 58.7551 78.013 58.9468 78.1241 59.2855L78.1953 59.5039C78.3154 59.8694 78.1064 60.266 77.7327 60.3641C77.3102 60.48 76.901 60.5735 76.5096 60.6538C75.9003 60.7697 75.3488 60.8276 74.8462 60.8276ZM74.2769 56.4732C74.6371 56.4732 74.9707 56.3306 75.2821 56.0498C75.5934 55.769 75.8069 55.3189 75.9181 54.7038L76.1494 53.4024C76.2205 52.9968 75.9181 52.6136 75.5089 52.6091C75.5044 52.6091 75.5044 52.6091 75.5 52.6091C75.1931 52.6091 74.9129 52.6715 74.6549 52.8007C74.397 52.93 74.179 53.1083 73.9967 53.34C73.8143 53.5718 73.6675 53.8437 73.5652 54.1556C73.4629 54.4676 73.4096 54.8108 73.4096 55.1807C73.4096 55.5596 73.4763 55.8715 73.6097 56.1122C73.7476 56.3529 73.97 56.4732 74.2769 56.4732Z" fill="white"/>
</g>
<defs>
<clipPath id="clip0_138_18805">
<rect width="199" height="199" fill="white"/>
</clipPath>
</defs>
</svg>
