<svg width="83" height="78" viewBox="0 0 83 78" fill="none" xmlns="http://www.w3.org/2000/svg">
<g clip-path="url(#clip0_138_19186)">
<path d="M5.04053 72.0557V76.4306C5.04053 77.2985 5.74194 77.9999 6.6098 77.9999H9.36792C10.2358 77.9999 10.9491 77.2985 10.9491 76.4306V72.0557H5.04053Z" fill="#124C60"/>
<path d="M71.7583 72.0557V76.4306C71.7583 77.2985 72.4597 77.9999 73.3276 77.9999H76.0857C76.9535 77.9999 77.655 77.2985 77.655 76.4306V72.0557H71.7583Z" fill="#124C60"/>
<path d="M5.04053 46.1865V50.5615C5.04053 51.4293 5.74194 52.1307 6.6098 52.1307H9.36792C10.2358 52.1307 10.9491 51.4293 10.9491 50.5615V46.1865H5.04053Z" fill="#124C60"/>
<path d="M71.7583 46.1865V50.5615C71.7583 51.4293 72.4597 52.1307 73.3276 52.1307H76.0857C76.9535 52.1307 77.655 51.4293 77.655 50.5615V46.1865H71.7583Z" fill="#124C60"/>
<path d="M5.04053 21.1377V25.5126C5.04053 26.3805 5.74194 27.0819 6.6098 27.0819H9.36792C10.2358 27.0819 10.9491 26.3805 10.9491 25.5126V21.1377H5.04053Z" fill="#124C60"/>
<path d="M71.7583 21.1377V25.5126C71.7583 26.3805 72.4597 27.0819 73.3276 27.0819H76.0857C76.9535 27.0819 77.655 26.3805 77.655 25.5126V21.1377H71.7583Z" fill="#124C60"/>
<path d="M77.2154 50.0979H5.49246C2.46091 50.0979 0 52.5588 0 55.5904V67.5739C0 70.6054 2.46091 73.0663 5.49246 73.0663H77.2154C80.2469 73.0663 82.7078 70.6054 82.7078 67.5739V55.5904C82.7078 52.5588 80.2469 50.0979 77.2154 50.0979Z" fill="#3A7F91"/>
<path d="M77.2154 70.2131H5.49246C2.46091 70.2131 0 68.0613 0 65.4102V67.5857C0 70.6173 2.46091 73.0782 5.49246 73.0782H77.2154C80.2469 73.0782 82.7078 70.6173 82.7078 67.5857V65.4102C82.7078 68.0613 80.2469 70.2131 77.2154 70.2131Z" fill="#062F3A"/>
<path d="M12.1023 63.6506C10.961 63.6506 10.0337 62.7233 10.0337 61.582C10.0337 60.4407 10.961 59.5134 12.1023 59.5134C13.2436 59.5134 14.1709 60.4407 14.1709 61.582C14.1709 62.7233 13.2436 63.6506 12.1023 63.6506ZM12.1023 60.6547C11.5911 60.6547 11.175 61.0708 11.175 61.582C11.175 62.0932 11.5911 62.5093 12.1023 62.5093C12.6135 62.5093 13.0296 62.0932 13.0296 61.582C13.0296 61.0708 12.6135 60.6547 12.1023 60.6547Z" fill="white"/>
<path d="M21.4944 63.6506C20.3531 63.6506 19.4258 62.7233 19.4258 61.582C19.4258 60.4407 20.3531 59.5134 21.4944 59.5134C22.6357 59.5134 23.563 60.4407 23.563 61.582C23.5748 62.7233 22.6357 63.6506 21.4944 63.6506ZM21.4944 60.6547C20.9832 60.6547 20.5671 61.0708 20.5671 61.582C20.5671 62.0932 20.9832 62.5093 21.4944 62.5093C22.0056 62.5093 22.4336 62.0932 22.4336 61.582C22.4336 61.0708 22.0175 60.6547 21.4944 60.6547Z" fill="white"/>
<path d="M30.8982 63.6506C29.7569 63.6506 28.8296 62.7233 28.8296 61.582C28.8296 60.4407 29.7569 59.5134 30.8982 59.5134C32.0395 59.5134 32.9668 60.4407 32.9668 61.582C32.9668 62.7233 32.0395 63.6506 30.8982 63.6506ZM30.8982 60.6547C30.387 60.6547 29.9709 61.0708 29.9709 61.582C29.9709 62.0932 30.387 62.5093 30.8982 62.5093C31.4094 62.5093 31.8255 62.0932 31.8255 61.582C31.8255 61.0708 31.4094 60.6547 30.8982 60.6547Z" fill="white"/>
<path d="M40.302 63.6506C39.1607 63.6506 38.2334 62.7233 38.2334 61.582C38.2334 60.4407 39.1607 59.5134 40.302 59.5134C41.4433 59.5134 42.3706 60.4407 42.3706 61.582C42.3587 62.7233 41.4314 63.6506 40.302 63.6506ZM40.302 60.6547C39.7908 60.6547 39.3747 61.0708 39.3747 61.582C39.3747 62.0932 39.7908 62.5093 40.302 62.5093C40.8132 62.5093 41.2293 62.0932 41.2293 61.582C41.2293 61.0708 40.8132 60.6547 40.302 60.6547Z" fill="white"/>
<path d="M49.6936 63.6506C48.5523 63.6506 47.625 62.7233 47.625 61.582C47.625 60.4407 48.5523 59.5134 49.6936 59.5134C50.8349 59.5134 51.7622 60.4407 51.7622 61.582C51.7622 62.7233 50.8349 63.6506 49.6936 63.6506ZM49.6936 60.6547C49.1824 60.6547 48.7663 61.0708 48.7663 61.582C48.7663 62.0932 49.1824 62.5093 49.6936 62.5093C50.2048 62.5093 50.6209 62.0932 50.6209 61.582C50.6209 61.0708 50.2048 60.6547 49.6936 60.6547Z" fill="white"/>
<path d="M12.1024 63.0801C11.2702 63.0801 10.6045 62.4025 10.6045 61.5822C10.6045 60.75 11.2702 60.0842 12.1024 60.0842C12.9227 60.0842 13.6004 60.75 13.6004 61.5822C13.6004 62.4144 12.9346 63.0801 12.1024 63.0801Z" fill="#14B0BF"/>
<path d="M21.4945 63.0801C20.6742 63.0801 19.9966 62.4025 19.9966 61.5822C19.9966 60.75 20.6623 60.0842 21.4945 60.0842C22.3267 60.0842 22.9925 60.75 22.9925 61.5822C23.0044 62.4144 22.3267 63.0801 21.4945 63.0801Z" fill="#14B0BF"/>
<path d="M30.8978 63.0801C30.0775 63.0801 29.3999 62.4025 29.3999 61.5822C29.3999 60.75 30.0775 60.0842 30.8978 60.0842C31.73 60.0842 32.3958 60.75 32.3958 61.5822C32.3958 62.4144 31.73 63.0801 30.8978 63.0801Z" fill="#14B0BF"/>
<path d="M40.3017 63.0801C39.4695 63.0801 38.8037 62.4025 38.8037 61.5822C38.8037 60.75 39.4695 60.0842 40.3017 60.0842C41.122 60.0842 41.7996 60.75 41.7996 61.5822C41.7996 62.4144 41.122 63.0801 40.3017 63.0801Z" fill="#F99B1D"/>
<path d="M49.6937 63.0801C48.8734 63.0801 48.1958 62.4025 48.1958 61.5822C48.1958 60.75 48.8734 60.0842 49.6937 60.0842C50.5259 60.0842 51.1917 60.75 51.1917 61.5822C51.1917 62.4144 50.5259 63.0801 49.6937 63.0801Z" fill="#E55555"/>
<path d="M72.1035 64.9229H63.7222V68.3705H72.1035V64.9229Z" fill="#062F3A"/>
<path d="M72.1035 54.7939H63.7222V63.1753H72.1035V54.7939Z" fill="#B8C7D8"/>
<path d="M77.2154 25.0488H5.49246C2.46091 25.0488 0 27.5097 0 30.5413V42.5248C0 45.5564 2.46091 48.0173 5.49246 48.0173H77.2154C80.2469 48.0173 82.7078 45.5564 82.7078 42.5248V30.5413C82.7078 27.5097 80.2469 25.0488 77.2154 25.0488Z" fill="#3A7F91"/>
<path d="M77.2154 45.164H5.49246C2.46091 45.164 0 43.0122 0 40.3611V42.5248C0 45.5563 2.46091 48.0172 5.49246 48.0172H77.2154C80.2469 48.0172 82.7078 45.5563 82.7078 42.5248V40.3611C82.7078 43.0122 80.2469 45.164 77.2154 45.164Z" fill="#062F3A"/>
<path d="M12.1023 38.6015C10.961 38.6015 10.0337 37.6742 10.0337 36.5329C10.0337 35.3917 10.961 34.4644 12.1023 34.4644C13.2436 34.4644 14.1709 35.3917 14.1709 36.5329C14.1709 37.6742 13.2436 38.6015 12.1023 38.6015ZM12.1023 35.6056C11.5911 35.6056 11.175 36.0217 11.175 36.5329C11.175 37.0441 11.5911 37.4602 12.1023 37.4602C12.6135 37.4602 13.0296 37.0441 13.0296 36.5329C13.0296 36.0217 12.6135 35.6056 12.1023 35.6056Z" fill="white"/>
<path d="M21.4944 38.6015C20.3531 38.6015 19.4258 37.6742 19.4258 36.5329C19.4258 35.3917 20.3531 34.4644 21.4944 34.4644C22.6357 34.4644 23.563 35.3917 23.563 36.5329C23.5748 37.6742 22.6357 38.6015 21.4944 38.6015ZM21.4944 35.6056C20.9832 35.6056 20.5671 36.0217 20.5671 36.5329C20.5671 37.0441 20.9832 37.4602 21.4944 37.4602C22.0056 37.4602 22.4336 37.0441 22.4336 36.5329C22.4336 36.0217 22.0175 35.6056 21.4944 35.6056Z" fill="white"/>
<path d="M30.8982 38.6015C29.7569 38.6015 28.8296 37.6742 28.8296 36.5329C28.8296 35.3917 29.7569 34.4644 30.8982 34.4644C32.0395 34.4644 32.9668 35.3917 32.9668 36.5329C32.9668 37.6742 32.0395 38.6015 30.8982 38.6015ZM30.8982 35.6056C30.387 35.6056 29.9709 36.0217 29.9709 36.5329C29.9709 37.0441 30.387 37.4602 30.8982 37.4602C31.4094 37.4602 31.8255 37.0441 31.8255 36.5329C31.8255 36.0217 31.4094 35.6056 30.8982 35.6056Z" fill="white"/>
<path d="M40.302 38.6015C39.1607 38.6015 38.2334 37.6742 38.2334 36.5329C38.2334 35.3917 39.1607 34.4644 40.302 34.4644C41.4433 34.4644 42.3706 35.3917 42.3706 36.5329C42.3587 37.6742 41.4314 38.6015 40.302 38.6015ZM40.302 35.6056C39.7908 35.6056 39.3747 36.0217 39.3747 36.5329C39.3747 37.0441 39.7908 37.4602 40.302 37.4602C40.8132 37.4602 41.2293 37.0441 41.2293 36.5329C41.2293 36.0217 40.8132 35.6056 40.302 35.6056Z" fill="white"/>
<path d="M49.6936 38.6015C48.5523 38.6015 47.625 37.6742 47.625 36.5329C47.625 35.3917 48.5523 34.4644 49.6936 34.4644C50.8349 34.4644 51.7622 35.3917 51.7622 36.5329C51.7622 37.6742 50.8349 38.6015 49.6936 38.6015ZM49.6936 35.6056C49.1824 35.6056 48.7663 36.0217 48.7663 36.5329C48.7663 37.0441 49.1824 37.4602 49.6936 37.4602C50.2048 37.4602 50.6209 37.0441 50.6209 36.5329C50.6209 36.0217 50.2048 35.6056 49.6936 35.6056Z" fill="white"/>
<path d="M12.1024 38.031C11.2702 38.031 10.6045 37.3653 10.6045 36.5331C10.6045 35.7009 11.2702 35.0352 12.1024 35.0352C12.9227 35.0352 13.6004 35.7128 13.6004 36.5331C13.6004 37.3653 12.9346 38.031 12.1024 38.031Z" fill="#14B0BF"/>
<path d="M21.4945 38.031C20.6742 38.031 19.9966 37.3653 19.9966 36.5331C19.9966 35.7009 20.6623 35.0352 21.4945 35.0352C22.3267 35.0352 22.9925 35.7128 22.9925 36.5331C23.0044 37.3653 22.3267 38.031 21.4945 38.031Z" fill="#14B0BF"/>
<path d="M30.8978 38.031C30.0775 38.031 29.3999 37.3653 29.3999 36.5331C29.3999 35.7009 30.0775 35.0352 30.8978 35.0352C31.73 35.0352 32.3958 35.7128 32.3958 36.5331C32.3958 37.3653 31.73 38.031 30.8978 38.031Z" fill="#14B0BF"/>
<path d="M40.3017 38.031C39.4695 38.031 38.8037 37.3653 38.8037 36.5331C38.8037 35.7009 39.4695 35.0352 40.3017 35.0352C41.122 35.0352 41.7996 35.7128 41.7996 36.5331C41.7996 37.3653 41.122 38.031 40.3017 38.031Z" fill="#F99B1D"/>
<path d="M49.6937 38.031C48.8734 38.031 48.1958 37.3653 48.1958 36.5331C48.1958 35.7009 48.8734 35.0352 49.6937 35.0352C50.5259 35.0352 51.1917 35.7128 51.1917 36.5331C51.1917 37.3653 50.5259 38.031 49.6937 38.031Z" fill="#E55555"/>
<path d="M72.1035 39.8738H63.7222V43.3214H72.1035V39.8738Z" fill="#062F3A"/>
<path d="M72.1035 29.7449H63.7222V38.1262H72.1035V29.7449Z" fill="#B8C7D8"/>
<path d="M77.2154 0H5.49246C2.46091 0 0 2.46091 0 5.49246V17.476C0 20.5075 2.46091 22.9684 5.49246 22.9684H77.2154C80.2469 22.9684 82.7078 20.5075 82.7078 17.476V5.49246C82.7078 2.46091 80.2469 0 77.2154 0Z" fill="#3A7F91"/>
<path d="M77.2154 20.1152H5.49246C2.46091 20.1152 0 17.9634 0 15.3123V17.4878C0 20.5194 2.46091 22.9803 5.49246 22.9803H77.2154C80.2469 22.9803 82.7078 20.5194 82.7078 17.4878V15.3123C82.7078 17.9634 80.2469 20.1152 77.2154 20.1152Z" fill="#062F3A"/>
<path d="M12.1023 13.5527C10.961 13.5527 10.0337 12.6254 10.0337 11.4841C10.0337 10.3428 10.961 9.41553 12.1023 9.41553C13.2436 9.41553 14.1709 10.3428 14.1709 11.4841C14.1709 12.6254 13.2436 13.5527 12.1023 13.5527ZM12.1023 10.5568C11.5911 10.5568 11.175 10.9729 11.175 11.4841C11.175 11.9953 11.5911 12.4114 12.1023 12.4114C12.6135 12.4114 13.0296 11.9953 13.0296 11.4841C13.0296 10.9729 12.6135 10.5568 12.1023 10.5568Z" fill="white"/>
<path d="M21.4944 13.5527C20.3531 13.5527 19.4258 12.6254 19.4258 11.4841C19.4258 10.3428 20.3531 9.41553 21.4944 9.41553C22.6357 9.41553 23.563 10.3428 23.563 11.4841C23.5748 12.6254 22.6357 13.5527 21.4944 13.5527ZM21.4944 10.5568C20.9832 10.5568 20.5671 10.9729 20.5671 11.4841C20.5671 11.9953 20.9832 12.4114 21.4944 12.4114C22.0056 12.4114 22.4336 11.9953 22.4336 11.4841C22.4336 10.9729 22.0175 10.5568 21.4944 10.5568Z" fill="white"/>
<path d="M30.8982 13.5527C29.7569 13.5527 28.8296 12.6254 28.8296 11.4841C28.8296 10.3428 29.7569 9.41553 30.8982 9.41553C32.0395 9.41553 32.9668 10.3428 32.9668 11.4841C32.9668 12.6254 32.0395 13.5527 30.8982 13.5527ZM30.8982 10.5568C30.387 10.5568 29.9709 10.9729 29.9709 11.4841C29.9709 11.9953 30.387 12.4114 30.8982 12.4114C31.4094 12.4114 31.8255 11.9953 31.8255 11.4841C31.8255 10.9729 31.4094 10.5568 30.8982 10.5568Z" fill="white"/>
<path d="M40.302 13.5527C39.1607 13.5527 38.2334 12.6254 38.2334 11.4841C38.2334 10.3428 39.1607 9.41553 40.302 9.41553C41.4433 9.41553 42.3706 10.3428 42.3706 11.4841C42.3587 12.6254 41.4314 13.5527 40.302 13.5527ZM40.302 10.5568C39.7908 10.5568 39.3747 10.9729 39.3747 11.4841C39.3747 11.9953 39.7908 12.4114 40.302 12.4114C40.8132 12.4114 41.2293 11.9953 41.2293 11.4841C41.2293 10.9729 40.8132 10.5568 40.302 10.5568Z" fill="white"/>
<path d="M49.6936 13.5527C48.5523 13.5527 47.625 12.6254 47.625 11.4841C47.625 10.3428 48.5523 9.41553 49.6936 9.41553C50.8349 9.41553 51.7622 10.3428 51.7622 11.4841C51.7622 12.6254 50.8349 13.5527 49.6936 13.5527ZM49.6936 10.5568C49.1824 10.5568 48.7663 10.9729 48.7663 11.4841C48.7663 11.9953 49.1824 12.4114 49.6936 12.4114C50.2048 12.4114 50.6209 11.9953 50.6209 11.4841C50.6209 10.9729 50.2048 10.5568 49.6936 10.5568Z" fill="white"/>
<path d="M12.1024 12.9822C11.2702 12.9822 10.6045 12.3046 10.6045 11.4843C10.6045 10.6521 11.2702 9.98633 12.1024 9.98633C12.9227 9.98633 13.6004 10.6521 13.6004 11.4843C13.6004 12.3165 12.9346 12.9822 12.1024 12.9822Z" fill="#14B0BF"/>
<path d="M21.4945 12.9822C20.6742 12.9822 19.9966 12.3046 19.9966 11.4843C19.9966 10.6521 20.6623 9.98633 21.4945 9.98633C22.3267 9.98633 22.9925 10.6521 22.9925 11.4843C23.0044 12.3165 22.3267 12.9822 21.4945 12.9822Z" fill="#14B0BF"/>
<path d="M30.8978 12.9822C30.0775 12.9822 29.3999 12.3046 29.3999 11.4843C29.3999 10.6521 30.0775 9.98633 30.8978 9.98633C31.73 9.98633 32.3958 10.6521 32.3958 11.4843C32.3958 12.3165 31.73 12.9822 30.8978 12.9822Z" fill="#14B0BF"/>
<path d="M40.3017 12.9822C39.4695 12.9822 38.8037 12.3046 38.8037 11.4843C38.8037 10.6521 39.4695 9.98633 40.3017 9.98633C41.122 9.98633 41.7996 10.6521 41.7996 11.4843C41.7996 12.3165 41.122 12.9822 40.3017 12.9822Z" fill="#F99B1D"/>
<path d="M49.6937 12.9822C48.8734 12.9822 48.1958 12.3046 48.1958 11.4843C48.1958 10.6521 48.8734 9.98633 49.6937 9.98633C50.5259 9.98633 51.1917 10.6521 51.1917 11.4843C51.1917 12.3165 50.5259 12.9822 49.6937 12.9822Z" fill="#E55555"/>
<path d="M72.1035 14.825H63.7222V18.2726H72.1035V14.825Z" fill="#062F3A"/>
<path d="M72.1035 4.69604H63.7222V13.0774H72.1035V4.69604Z" fill="#B8C7D8"/>
</g>
<defs>
<clipPath id="clip0_138_19186">
<rect width="82.7078" height="78" fill="white"/>
</clipPath>
</defs>
</svg>
