<svg width="78" height="78" viewBox="0 0 78 78" fill="none" xmlns="http://www.w3.org/2000/svg">
<g clip-path="url(#clip0_138_19007)">
<path d="M74.7217 12.9065C74.2342 12.9065 73.832 13.3087 73.832 13.7962V22.1324C73.832 22.6321 74.2342 23.0221 74.7217 23.0221C75.2092 23.0221 75.6114 22.6199 75.6114 22.1324V13.7962C75.6236 13.2965 75.2214 12.9065 74.7217 12.9065Z" fill="#00A1F1"/>
<path d="M74.7217 27.1904C74.2342 27.1904 73.832 27.5926 73.832 28.0801V42.3639C73.832 42.8514 74.2342 43.2536 74.7217 43.2536C75.2092 43.2536 75.6114 42.8514 75.6114 42.3639V28.0801C75.6236 27.5926 75.2214 27.1904 74.7217 27.1904Z" fill="#00A1F1"/>
<path d="M3.27836 27.1904C2.79086 27.1904 2.38867 27.5926 2.38867 28.0801V34.0398C2.38867 34.5273 2.79086 34.9295 3.27836 34.9295C3.76586 34.9295 4.16805 34.5273 4.16805 34.0398V28.0801C4.16805 27.5926 3.76586 27.1904 3.27836 27.1904Z" fill="#00A1F1"/>
<path d="M3.27836 0C2.79086 0 2.38867 0.402188 2.38867 0.889688V22.1203C2.38867 22.6078 2.79086 23.01 3.27836 23.01C3.76586 23.01 4.16805 22.6078 4.16805 22.1203V0.889688C4.16805 0.402188 3.76586 0 3.27836 0Z" fill="#00A1F1"/>
<path d="M25.8986 11.9072L18.0864 22.3275L25.8986 32.7479L28.2874 30.9685L21.8036 22.3275L28.2874 13.6988L25.8986 11.9072Z" fill="#F65314"/>
<path d="M52.1016 11.9072L49.7129 13.6988L56.1966 22.3275L49.7129 30.9685L52.1016 32.7479L59.9138 22.3275L52.1016 11.9072Z" fill="#F65314"/>
<path d="M43.5676 12.0355L31.8906 31.0801L34.4257 32.6345L46.1027 13.5899L43.5676 12.0355Z" fill="#F65314"/>
<path d="M12.9922 61.6199C12.3341 61.6199 11.7979 62.1561 11.7979 62.8142C11.7979 63.4846 12.3341 64.0086 12.9922 64.0086C13.6625 64.0086 14.1988 63.4846 14.1988 62.8142C14.1988 62.1561 13.6625 61.6199 12.9922 61.6199Z" fill="#7CBB00"/>
<path d="M22.4497 61.6199C21.7916 61.6199 21.2554 62.1561 21.2554 62.8142C21.2554 63.4846 21.7916 64.0086 22.4497 64.0086C23.1079 64.0086 23.6441 63.4846 23.6441 62.8142C23.6441 62.1561 23.1079 61.6199 22.4497 61.6199Z" fill="#7CBB00"/>
<path d="M17.7207 61.6199C17.0626 61.6199 16.5264 62.1561 16.5264 62.8142C16.5264 63.4846 17.0626 64.0086 17.7207 64.0086C18.3911 64.0086 18.9151 63.4846 18.9151 62.8142C18.9151 62.1561 18.3911 61.6199 17.7207 61.6199Z" fill="#7CBB00"/>
<path d="M60.2671 61.6199C59.5968 61.6199 59.0728 62.1561 59.0728 62.8142C59.0728 63.4846 59.5968 64.0086 60.2671 64.0086C60.9253 64.0086 61.4615 63.4846 61.4615 62.8142C61.4615 62.1561 60.9253 61.6199 60.2671 61.6199Z" fill="#7CBB00"/>
<path d="M55.5508 61.6199C54.8805 61.6199 54.3564 62.1561 54.3564 62.8142C54.3564 63.4846 54.8805 64.0086 55.5508 64.0086C56.2089 64.0086 56.7452 63.4846 56.7452 62.8142C56.733 62.1561 56.1968 61.6199 55.5508 61.6199Z" fill="#7CBB00"/>
<path d="M64.9839 61.6199C64.3258 61.6199 63.7896 62.1561 63.7896 62.8142C63.7896 63.4846 64.3258 64.0086 64.9839 64.0086C65.6542 64.0086 66.1905 63.4846 66.1905 62.8142C66.1905 62.1561 65.6542 61.6199 64.9839 61.6199Z" fill="#7CBB00"/>
<path d="M12.5655 49.7127C12.8702 49.7127 13.187 49.5908 13.3942 49.3714C13.6258 49.1399 13.7477 48.8474 13.7477 48.5305C13.7477 48.2258 13.6136 47.9089 13.3942 47.7017C12.9555 47.2508 12.1511 47.2508 11.7123 47.7017C11.4808 47.9211 11.3711 48.2258 11.3711 48.5305C11.3711 48.8474 11.493 49.152 11.7123 49.3714C11.9317 49.5908 12.2486 49.7127 12.5655 49.7127Z" fill="#7CBB00"/>
<path d="M12.3341 53.2838C12.3341 52.9791 12.2 52.6622 11.9806 52.4428C11.5419 52.0163 10.7497 52.0041 10.2988 52.455C10.0672 52.6744 9.95752 52.9791 9.95752 53.2838C9.95752 53.6007 10.0794 53.9053 10.2988 54.1247C10.5181 54.3563 10.835 54.466 11.1397 54.466C11.4444 54.466 11.7491 54.3441 11.9685 54.1247C12.2 53.9053 12.3341 53.6007 12.3341 53.2838Z" fill="#7CBB00"/>
<path d="M8.86029 57.2201C8.62873 57.4395 8.51904 57.7442 8.51904 58.0489C8.51904 58.3657 8.64092 58.6826 8.86029 58.8898C9.09186 59.1214 9.38436 59.231 9.70123 59.231C10.0059 59.231 10.3228 59.1092 10.5422 58.8898C10.7615 58.6582 10.8834 58.3657 10.8834 58.0489C10.8834 57.7442 10.7494 57.4273 10.53 57.2079C10.1034 56.7692 9.29904 56.7692 8.86029 57.2201Z" fill="#7CBB00"/>
<path d="M7.43451 61.9855C7.20295 62.2049 7.09326 62.5096 7.09326 62.8143C7.09326 63.1312 7.21514 63.448 7.43451 63.6552C7.66607 63.8868 7.95857 63.9965 8.27545 63.9965C8.58014 63.9965 8.89701 63.8746 9.11639 63.6552C9.33576 63.4237 9.45764 63.1312 9.45764 62.8143C9.45764 62.5096 9.32357 62.1927 9.1042 61.9855C8.67764 61.5224 7.87326 61.5224 7.43451 61.9855Z" fill="#7CBB00"/>
<path d="M65.4468 49.7128C65.7515 49.7128 66.0684 49.5909 66.2756 49.3715C66.5071 49.1521 66.629 48.8474 66.629 48.5306C66.629 48.2259 66.4949 47.909 66.2756 47.7018C65.8368 47.2631 65.0324 47.2509 64.5937 47.7018C64.3743 47.9212 64.2524 48.2259 64.2524 48.5306C64.2524 48.8474 64.3743 49.1643 64.5937 49.3715C64.8131 49.5909 65.1178 49.7128 65.4468 49.7128Z" fill="#7CBB00"/>
<path d="M68.0553 53.2838C68.0553 52.9791 67.9212 52.6622 67.7018 52.455C67.2753 52.0041 66.4465 52.0163 66.02 52.4428C65.8006 52.6744 65.6787 52.9791 65.6787 53.2838C65.6787 53.6007 65.8006 53.9175 66.02 54.1247C66.2393 54.3563 66.544 54.466 66.8609 54.466C67.1656 54.466 67.4825 54.3441 67.6897 54.1247C67.9334 53.9175 68.0553 53.6128 68.0553 53.2838Z" fill="#7CBB00"/>
<path d="M36.5992 49.7127C37.2573 49.7127 37.7935 49.1765 37.7935 48.5183C37.7935 47.8602 37.2573 47.324 36.5992 47.324C35.941 47.324 35.4048 47.8602 35.4048 48.5183C35.4048 49.1765 35.941 49.7127 36.5992 49.7127Z" fill="#7CBB00"/>
<path d="M26.9712 49.7127C27.6415 49.7127 28.1778 49.1765 28.1778 48.5183C28.1778 47.8602 27.6415 47.324 26.9712 47.324C26.3131 47.324 25.7769 47.8602 25.7769 48.5183C25.789 49.1765 26.3253 49.7127 26.9712 49.7127Z" fill="#7CBB00"/>
<path d="M55.8189 49.7127C56.477 49.7127 57.0133 49.1765 57.0133 48.5183C57.0133 47.8602 56.477 47.324 55.8189 47.324C55.1608 47.324 54.6245 47.8602 54.6245 48.5183C54.6245 49.1765 55.1608 49.7127 55.8189 49.7127Z" fill="#7CBB00"/>
<path d="M51.0171 49.7127C51.6753 49.7127 52.2115 49.1765 52.2115 48.5183C52.2115 47.8602 51.6753 47.324 51.0171 47.324C50.3468 47.324 49.8228 47.8602 49.8228 48.5183C49.8349 49.1765 50.359 49.7127 51.0171 49.7127Z" fill="#7CBB00"/>
<path d="M31.7852 49.7127C32.4433 49.7127 32.9796 49.1765 32.9796 48.5183C32.9796 47.8602 32.4433 47.324 31.7852 47.324C31.1271 47.324 30.5908 47.8602 30.5908 48.5183C30.603 49.1765 31.1271 49.7127 31.7852 49.7127Z" fill="#7CBB00"/>
<path d="M17.3672 49.7127C18.0254 49.7127 18.5616 49.1765 18.5616 48.5183C18.5616 47.8602 18.0254 47.324 17.3672 47.324C16.7091 47.324 16.1729 47.8602 16.1729 48.5183C16.1729 49.1765 16.7091 49.7127 17.3672 49.7127Z" fill="#7CBB00"/>
<path d="M46.2154 49.7127C46.8735 49.7127 47.4097 49.1765 47.4097 48.5183C47.4097 47.8602 46.8735 47.324 46.2154 47.324C45.5451 47.324 45.021 47.8602 45.021 48.5183C45.021 49.1765 45.5451 49.7127 46.2154 49.7127Z" fill="#7CBB00"/>
<path d="M60.6329 49.7127C61.291 49.7127 61.8272 49.1765 61.8272 48.5183C61.8272 47.8602 61.291 47.324 60.6329 47.324C59.9747 47.324 59.4385 47.8602 59.4385 48.5183C59.4385 49.1765 59.9747 49.7127 60.6329 49.7127Z" fill="#7CBB00"/>
<path d="M22.1812 49.7127C22.8393 49.7127 23.3756 49.1765 23.3756 48.5183C23.3756 47.8602 22.8393 47.324 22.1812 47.324C21.5231 47.324 20.9868 47.8602 20.9868 48.5183C20.9868 49.1765 21.5231 49.7127 22.1812 49.7127Z" fill="#7CBB00"/>
<path d="M41.4009 49.7127C42.059 49.7127 42.5953 49.1765 42.5953 48.5183C42.5953 47.8602 42.059 47.324 41.4009 47.324C40.7428 47.324 40.2065 47.8602 40.2065 48.5183C40.2065 49.1765 40.7428 49.7127 41.4009 49.7127Z" fill="#7CBB00"/>
<path d="M34.3565 54.4781C35.0146 54.4781 35.5509 53.954 35.5509 53.2837C35.5509 52.6256 35.0146 52.0894 34.3565 52.0894C33.6862 52.0894 33.1621 52.6256 33.1621 53.2837C33.1743 53.954 33.6984 54.4781 34.3565 54.4781Z" fill="#7CBB00"/>
<path d="M38.9879 54.4781C39.6582 54.4781 40.1822 53.954 40.1822 53.2837C40.1822 52.6256 39.6582 52.0894 38.9879 52.0894C38.3297 52.0894 37.8057 52.6256 37.8057 53.2837C37.8179 53.954 38.3419 54.4781 38.9879 54.4781Z" fill="#7CBB00"/>
<path d="M20.4263 54.4781C21.0844 54.4781 21.6207 53.954 21.6207 53.2837C21.6207 52.6256 21.0844 52.0894 20.4263 52.0894C19.756 52.0894 19.2319 52.6256 19.2319 53.2837C19.2319 53.954 19.756 54.4781 20.4263 54.4781Z" fill="#7CBB00"/>
<path d="M29.7134 54.4781C30.3715 54.4781 30.9078 53.954 30.9078 53.2837C30.9078 52.6256 30.3715 52.0894 29.7134 52.0894C29.0431 52.0894 28.519 52.6256 28.519 53.2837C28.5312 53.954 29.0431 54.4781 29.7134 54.4781Z" fill="#7CBB00"/>
<path d="M25.0699 54.4781C25.728 54.4781 26.2642 53.954 26.2642 53.2837C26.2642 52.6256 25.728 52.0894 25.0699 52.0894C24.3996 52.0894 23.8755 52.6256 23.8755 53.2837C23.8755 53.954 24.3996 54.4781 25.0699 54.4781Z" fill="#7CBB00"/>
<path d="M16.9771 53.2837C16.9771 52.6256 16.4409 52.0894 15.7828 52.0894C15.1124 52.0894 14.5884 52.6256 14.5884 53.2837C14.5884 53.954 15.1124 54.4781 15.7828 54.4781C16.4409 54.4781 16.9771 53.954 16.9771 53.2837Z" fill="#7CBB00"/>
<path d="M51.748 53.2837C51.748 53.954 52.2721 54.4781 52.9424 54.4781C53.6005 54.4781 54.1368 53.954 54.1368 53.2837C54.1368 52.6256 53.6005 52.0894 52.9424 52.0894C52.2721 52.1015 51.748 52.6256 51.748 53.2837Z" fill="#7CBB00"/>
<path d="M48.2872 54.4781C48.9575 54.4781 49.4815 53.954 49.4815 53.2837C49.4815 52.6256 48.9575 52.0894 48.2872 52.0894C47.629 52.0894 47.105 52.6256 47.105 53.2837C47.105 53.954 47.629 54.4781 48.2872 54.4781Z" fill="#7CBB00"/>
<path d="M61.0229 53.2837C61.0229 53.954 61.5592 54.4781 62.2295 54.4781C62.8876 54.4781 63.4239 53.954 63.4239 53.2837C63.4239 52.6256 62.8876 52.0894 62.2295 52.0894C61.5592 52.1015 61.0229 52.6256 61.0229 53.2837Z" fill="#7CBB00"/>
<path d="M56.3916 53.2837C56.3916 53.954 56.9157 54.4781 57.5738 54.4781C58.2441 54.4781 58.7682 53.954 58.7682 53.2837C58.7682 52.6256 58.2441 52.0894 57.5738 52.0894C56.9157 52.1015 56.3916 52.6256 56.3916 53.2837Z" fill="#7CBB00"/>
<path d="M43.6436 54.4781C44.3017 54.4781 44.838 53.954 44.838 53.2837C44.838 52.6256 44.3017 52.0894 43.6436 52.0894C42.9733 52.0894 42.4492 52.6256 42.4492 53.2837C42.4614 53.954 42.9855 54.4781 43.6436 54.4781Z" fill="#7CBB00"/>
<path d="M14.5884 56.8545C13.9181 56.8545 13.394 57.3907 13.394 58.0489C13.394 58.7192 13.9181 59.2432 14.5884 59.2432C15.2465 59.2432 15.7706 58.7192 15.7706 58.0489C15.7706 57.3907 15.2465 56.8545 14.5884 56.8545Z" fill="#7CBB00"/>
<path d="M19.4756 56.8545C18.8053 56.8545 18.2812 57.3907 18.2812 58.0489C18.2812 58.7192 18.8053 59.2432 19.4756 59.2432C20.1337 59.2432 20.67 58.7192 20.67 58.0489C20.67 57.3907 20.1337 56.8545 19.4756 56.8545Z" fill="#7CBB00"/>
<path d="M59.7188 58.0489C59.7188 57.3907 59.1948 56.8545 58.5367 56.8545C57.8663 56.8545 57.3423 57.3907 57.3423 58.0489C57.3423 58.7192 57.8663 59.2432 58.5367 59.2432C59.1948 59.2432 59.7188 58.7192 59.7188 58.0489Z" fill="#7CBB00"/>
<path d="M34.125 56.8545C33.4547 56.8545 32.9307 57.3907 32.9307 58.0489C32.9307 58.7192 33.4547 59.2432 34.125 59.2432C34.7832 59.2432 35.3194 58.7192 35.3194 58.0489C35.3072 57.3907 34.7832 56.8545 34.125 56.8545Z" fill="#7CBB00"/>
<path d="M64.606 58.0489C64.606 57.3907 64.0698 56.8545 63.4116 56.8545C62.7413 56.8545 62.2051 57.3907 62.2051 58.0489C62.2051 58.7192 62.7413 59.2432 63.4116 59.2432C64.0698 59.2432 64.606 58.7192 64.606 58.0489Z" fill="#7CBB00"/>
<path d="M39 59.2432C39.6582 59.2432 40.1822 58.7192 40.1822 58.0489C40.1822 57.3907 39.6582 56.8545 39 56.8545C38.3297 56.8545 37.8057 57.3907 37.8057 58.0489C37.8179 58.7192 38.3419 59.2432 39 59.2432Z" fill="#7CBB00"/>
<path d="M24.3628 56.8545C23.6925 56.8545 23.1685 57.3907 23.1685 58.0489C23.1685 58.7192 23.6925 59.2432 24.3628 59.2432C25.021 59.2432 25.5572 58.7192 25.5572 58.0489C25.545 57.3907 25.0088 56.8545 24.3628 56.8545Z" fill="#7CBB00"/>
<path d="M29.2378 59.2432C29.896 59.2432 30.4322 58.7192 30.4322 58.0489C30.4322 57.3907 29.896 56.8545 29.2378 56.8545C28.5675 56.8545 28.0435 57.3907 28.0435 58.0489C28.0435 58.7192 28.5675 59.2432 29.2378 59.2432Z" fill="#7CBB00"/>
<path d="M47.5679 58.0489C47.5679 58.7192 48.1041 59.2432 48.7744 59.2432C49.4326 59.2432 49.9688 58.7192 49.9688 58.0489C49.9688 57.3907 49.4326 56.8545 48.7744 56.8545C48.1041 56.8545 47.5679 57.3907 47.5679 58.0489Z" fill="#7CBB00"/>
<path d="M54.8438 58.0489C54.8438 57.3907 54.3076 56.8545 53.6373 56.8545C52.9791 56.8545 52.4551 57.3907 52.4551 58.0489C52.4551 58.7192 52.9791 59.2432 53.6373 59.2432C54.3076 59.2432 54.8438 58.7192 54.8438 58.0489Z" fill="#7CBB00"/>
<path d="M43.8872 56.8545C43.2169 56.8545 42.6929 57.3907 42.6929 58.0489C42.6929 58.7192 43.2169 59.2432 43.8872 59.2432C44.5454 59.2432 45.0816 58.7192 45.0816 58.0489C45.0816 57.3907 44.5454 56.8545 43.8872 56.8545Z" fill="#7CBB00"/>
<path d="M69.4933 58.0489C69.4933 57.7442 69.3592 57.4273 69.1398 57.2079C68.7011 56.7692 67.8967 56.7692 67.4579 57.2201C67.2264 57.4517 67.1167 57.7442 67.1167 58.0489C67.1167 58.3657 67.2386 58.6704 67.4579 58.8898C67.6773 59.1214 67.982 59.231 68.2989 59.231C68.6036 59.231 68.9205 59.1092 69.1276 58.8898C69.3592 58.6704 69.4933 58.3779 69.4933 58.0489Z" fill="#7CBB00"/>
<path d="M70.5656 61.9854C70.1269 61.5345 69.3225 61.5345 68.8837 61.9854C68.6522 62.2048 68.5425 62.5095 68.5425 62.8142C68.5425 63.131 68.6644 63.4357 68.8837 63.6551C69.1031 63.8867 69.4078 63.9964 69.7247 63.9964C70.0294 63.9964 70.3462 63.8745 70.5534 63.6551C70.7728 63.4235 70.9069 63.131 70.9069 62.8142C70.919 62.5095 70.785 62.1926 70.5656 61.9854Z" fill="#7CBB00"/>
<path d="M50.9072 61.6321H27.0928C26.4347 61.6321 25.8984 62.1683 25.8984 62.8265C25.8984 63.4846 26.4347 64.0208 27.0928 64.0208H50.9072C51.5653 64.0208 52.1016 63.4846 52.1016 62.8265C52.1016 62.1561 51.5653 61.6321 50.9072 61.6321Z" fill="#7CBB00"/>
<path d="M0.889648 67.5796V74.7215C0.889648 76.0377 1.96215 77.098 3.26621 77.098H74.7215C76.0378 77.098 77.0981 76.0255 77.0981 74.7215V67.5796H0.889648ZM43.7653 73.4418H34.2346C33.7472 73.4418 33.345 73.0396 33.345 72.5521C33.345 72.0646 33.7472 71.6624 34.2346 71.6624H43.7653C44.2528 71.6624 44.655 72.0646 44.655 72.5521C44.655 73.0396 44.2528 73.4418 43.7653 73.4418Z" fill="#00A1F1"/>
<path d="M66.3855 0.889648H11.6148C10.2986 0.889648 9.23828 1.96215 9.23828 3.26621V43.7531H68.7864V3.2784C68.7742 1.96215 67.7017 0.889648 66.3855 0.889648ZM64.0089 39H13.9914V5.65496H64.0089V39Z" fill="#FFBB00"/>
<path d="M77.9512 67.2872L69.6637 43.6191V3.27844C69.6637 1.47469 68.2012 0 66.3853 0H11.6147C9.79875 0 8.33625 1.47469 8.33625 3.27844V43.6191L0.04875 67.2872C0.0121875 67.3847 0 67.4822 0 67.5797V74.7216C0 76.5253 1.47469 78 3.27844 78H74.7337C76.5375 78 78.0122 76.5253 78.0122 74.7216V67.5797C78 67.4822 77.9878 67.3847 77.9512 67.2872ZM10.1278 3.27844C10.1278 2.46187 10.7981 1.79156 11.6147 1.79156H66.3975C67.2141 1.79156 67.8844 2.46187 67.8844 3.27844V42.8756H10.1278V3.27844ZM9.85969 44.655H68.1403L75.855 66.69H2.15719L9.85969 44.655ZM74.7216 76.2084H3.27844C2.46187 76.2084 1.79156 75.5381 1.79156 74.7216V68.4694H76.2206V74.7216C76.2084 75.5503 75.5503 76.2084 74.7216 76.2084Z" fill="#1A171B"/>
</g>
<defs>
<clipPath id="clip0_138_19007">
<rect width="78" height="78" fill="white"/>
</clipPath>
</defs>
</svg>
