<svg width="78" height="78" viewBox="0 0 78 78" fill="none" xmlns="http://www.w3.org/2000/svg">
<g clip-path="url(#clip0_138_19134)">
<path d="M35.4293 8.03149C20.3046 8.03149 8.04395 20.2921 8.04395 35.4168C8.04395 50.5415 20.3046 62.8021 35.4293 62.8021C40.1093 62.8021 44.5211 61.6199 48.3846 59.5481C41.1086 54.4781 33.4671 52.5524 33.4671 52.5524L27.8974 27.9093L52.5649 33.4546C52.5649 33.4546 54.4905 41.1084 59.5605 48.3721C61.6324 44.5209 62.8146 40.109 62.8146 35.4168C62.8146 20.3043 50.5539 8.03149 35.4293 8.03149Z" fill="#FFBB00"/>
<path d="M39.8535 43.7287C39.8535 45.8615 41.5841 47.5921 43.717 47.5921C45.8498 47.5921 47.5926 45.8615 47.5926 43.7287C47.5926 41.5958 45.862 39.853 43.717 39.853C41.572 39.853 39.8535 41.5958 39.8535 43.7287Z" fill="#FFBB00"/>
<path d="M62.2172 51.7969L51.7847 62.2172L55.0265 69.6516L62.339 62.3391L69.6515 55.0266L62.2172 51.7969Z" fill="#7CBB00"/>
<path d="M5.28914 7.92188H3.50977V35.7216H5.28914V7.92188Z" fill="#F65314"/>
<path d="M47.7137 4.4119C47.7137 3.9244 47.3115 3.52222 46.824 3.52222H42.7534V5.30159H46.824C47.3115 5.30159 47.7137 4.8994 47.7137 4.4119Z" fill="#F65314"/>
<path d="M3.50977 46.8121C3.50977 47.3118 3.91195 47.7018 4.39945 47.7018C4.88695 47.7018 5.28914 47.2996 5.28914 46.8121V42.7415H3.50977V46.8121Z" fill="#F65314"/>
<path d="M35.7216 3.51001H7.92188V5.28938H35.7216V3.51001Z" fill="#F65314"/>
<path d="M73.5879 12.2971C73.0882 12.2971 72.6982 12.6993 72.6982 13.1868V35.7215H74.4898V13.1868C74.4898 12.6993 74.0876 12.2971 73.5879 12.2971Z" fill="#F65314"/>
<path d="M70.0778 72.6985H42.7412V74.49H70.0778V72.6985Z" fill="#F65314"/>
<path d="M12.2969 73.5882C12.2969 74.0757 12.6991 74.4778 13.1866 74.4778H35.7212V72.6863H13.1866C12.6991 72.6985 12.2969 73.1007 12.2969 73.5882Z" fill="#F65314"/>
<path d="M74.4898 42.7537H72.6982V70.0902H74.4898V42.7537Z" fill="#F65314"/>
<path d="M77.1103 0.889648H70.0781V7.92184H77.1103V0.889648Z" fill="#00A1F1"/>
<path d="M7.92184 70.0781H0.889648V77.1103H7.92184V70.0781Z" fill="#00A1F1"/>
<path d="M70.529 54.8559C70.4803 54.5634 70.2731 54.3196 70.005 54.1978L62.7778 51.0534C56.0381 43.29 53.4665 33.3328 53.4422 33.2353C53.3568 32.9062 53.1009 32.6625 52.7718 32.5771L28.1043 27.0196C27.7997 26.9587 27.495 27.044 27.2756 27.2634C27.0562 27.4828 26.9709 27.7875 27.0319 28.0921L32.5893 52.7596C32.6625 53.0887 32.9184 53.3446 33.2475 53.43C33.345 53.4543 43.29 56.0137 51.0656 62.7656L54.21 69.9928C54.3318 70.2609 54.5756 70.4559 54.8681 70.5168C54.9168 70.529 54.9778 70.529 55.0387 70.529C55.2703 70.529 55.5019 70.4315 55.6725 70.2731L70.2975 55.6481C70.4803 55.4409 70.5778 55.1484 70.529 54.8559ZM34.2103 51.8456L29.4572 30.7125L39.7922 41.0596C39.2681 41.8275 38.9634 42.7415 38.9634 43.7287C38.9634 46.3612 41.0962 48.494 43.7287 48.494C46.3612 48.494 48.494 46.3612 48.494 43.7287C48.494 41.0962 46.3612 38.9634 43.7287 38.9634C42.7415 38.9634 41.8153 39.2681 41.0597 39.7921L30.7247 29.4571L51.8578 34.2103C52.4793 36.3918 55.1119 44.7037 61.0106 51.7481L51.7481 61.0106C44.7037 55.0996 36.3918 52.4671 34.2103 51.8456ZM43.7287 40.755C45.374 40.755 46.7025 42.0956 46.7025 43.7287C46.7025 45.374 45.3619 46.7025 43.7287 46.7025C42.0834 46.7025 40.755 45.3618 40.755 43.7287C40.755 42.0834 42.0834 40.755 43.7287 40.755ZM55.319 68.0915L52.8572 62.4243L62.4244 52.8571L68.0915 55.319L55.319 68.0915Z" fill="#1A171B"/>
<path d="M34.1981 16.6846C33.9177 16.2824 33.3571 16.1849 32.9549 16.4774C20.2799 25.4962 10.859 38.6465 6.43493 53.4909C6.28868 53.9662 6.56899 54.4659 7.03212 54.5999C7.11743 54.6243 7.20274 54.6365 7.28806 54.6365C7.66587 54.6365 8.03149 54.3806 8.14118 54.0028C12.4556 39.5362 21.6327 26.7271 33.9787 17.9399C34.3931 17.6474 34.4784 17.0868 34.1981 16.6846Z" fill="#1A171B"/>
<path d="M0.889688 8.81156H7.92188C8.40938 8.81156 8.81156 8.40938 8.81156 7.92188V0.889688C8.81156 0.402188 8.40938 0 7.92188 0H0.889688C0.402188 0 0 0.402188 0 0.889688V7.92188C0 8.40938 0.402188 8.81156 0.889688 8.81156ZM1.77938 1.79156H7.02V7.03219H1.77938V1.79156Z" fill="#1A171B"/>
<path d="M0.889688 43.6434H7.92188C8.40938 43.6434 8.81156 43.2412 8.81156 42.7537V35.7215C8.81156 35.234 8.40938 34.8318 7.92188 34.8318H0.889688C0.402188 34.8318 0 35.234 0 35.7215V42.7537C0 43.2412 0.402188 43.6434 0.889688 43.6434ZM1.77938 36.6112H7.02V41.8518H1.77938V36.6112Z" fill="#1A171B"/>
<path d="M77.1104 34.8318H70.0782C69.5907 34.8318 69.1885 35.234 69.1885 35.7215V42.7537C69.1885 43.2412 69.5907 43.6434 70.0782 43.6434H77.1104C77.61 43.6434 78 43.2412 78 42.7537V35.7215C78 35.234 77.5979 34.8318 77.1104 34.8318ZM76.2085 41.8518H70.9679V36.6112H76.2085V41.8518Z" fill="#1A171B"/>
<path d="M35.7217 8.81156H42.7539C43.2414 8.81156 43.6436 8.40938 43.6436 7.92188V0.889688C43.6436 0.39 43.2414 0 42.7539 0H35.7217C35.2342 0 34.832 0.402188 34.832 0.889688V7.92188C34.832 8.40938 35.222 8.81156 35.7217 8.81156ZM36.6114 1.79156H41.852V7.03219H36.6114V1.79156Z" fill="#1A171B"/>
<path d="M77.1105 0H70.0784C69.5909 0 69.1887 0.402188 69.1887 0.889688V3.68062C58.1834 4.36312 47.4949 7.605 38.013 13.1869C37.5865 13.4428 37.4524 13.9791 37.6962 14.4056C37.8668 14.6859 38.1593 14.8444 38.464 14.8444C38.6224 14.8444 38.7687 14.8078 38.9149 14.7225C48.1165 9.29906 58.5002 6.15469 69.1887 5.47219V7.92188C69.1887 8.40938 69.5909 8.81156 70.0784 8.81156H77.1105C77.598 8.81156 78.0002 8.40938 78.0002 7.92188V0.889688C78.0002 0.402188 77.598 0 77.1105 0ZM76.2087 7.03219H70.968V1.79156H76.2087V7.03219Z" fill="#1A171B"/>
<path d="M7.92188 69.1885H5.44781C5.655 66.0076 6.05719 62.8389 6.70312 59.731C6.80062 59.2435 6.49594 58.7804 6.00844 58.6707C5.52094 58.5732 5.05781 58.8779 4.94812 59.3654C4.29 62.5951 3.86344 65.8857 3.65625 69.1885H0.889688C0.402188 69.1885 0 69.5907 0 70.0782V77.0982C0 77.5979 0.402188 78.0001 0.889688 78.0001H7.92188C8.40938 78.0001 8.81156 77.5979 8.81156 77.1104V70.0782C8.81156 69.5907 8.40938 69.1885 7.92188 69.1885ZM7.03219 76.2085H1.79156V70.9679H7.03219V76.2085Z" fill="#1A171B"/>
<path d="M42.7417 69.1885H35.7095C35.222 69.1885 34.8198 69.5907 34.8198 70.0782V77.0982C34.8198 77.5978 35.222 77.9879 35.7095 77.9879H42.7417C43.2292 77.9879 43.6314 77.5857 43.6314 77.0982V70.0782C43.6436 69.5907 43.2414 69.1885 42.7417 69.1885ZM41.852 76.2085H36.6114V70.9679H41.852V76.2085Z" fill="#1A171B"/>
<path d="M77.1104 69.1885H70.0782C69.5907 69.1885 69.1885 69.5907 69.1885 70.0782V77.0982C69.1885 77.5978 69.5907 77.9879 70.0782 77.9879H77.1104C77.61 77.9879 78 77.5857 78 77.0982V70.0782C78 69.5907 77.5979 69.1885 77.1104 69.1885ZM76.2085 76.2085H70.9679V70.9679H76.2085V76.2085Z" fill="#1A171B"/>
</g>
<defs>
<clipPath id="clip0_138_19134">
<rect width="78" height="78" fill="white"/>
</clipPath>
</defs>
</svg>
